<?xml version="1.0" encoding="UTF-8"?>
<svg xmlns="http://www.w3.org/2000/svg" xmlns:xlink="http://www.w3.org/1999/xlink" width="45px" height="65px" viewBox="0 0 45 65" version="1.1">
<g id="surface1">
<path style=" stroke:none;fill-rule:nonzero;fill:rgb(5.098039%,4.705882%,13.333333%);fill-opacity:1;" d="M 40.269531 15.121094 L 40.226562 15.09375 L 40.125 15.0625 C 40.164062 15.097656 40.21875 15.117188 40.269531 15.121094 Z M 40.269531 15.121094 "/>
<path style=" stroke:none;fill-rule:nonzero;fill:rgb(5.098039%,4.705882%,13.333333%);fill-opacity:1;" d="M 40.921875 19.765625 L 40.871094 19.777344 Z M 40.921875 19.765625 "/>
<path style=" stroke:none;fill-rule:nonzero;fill:rgb(5.098039%,4.705882%,13.333333%);fill-opacity:1;" d="M 40.289062 15.113281 C 40.285156 15.113281 40.277344 15.109375 40.273438 15.109375 C 40.273438 15.113281 40.273438 15.117188 40.273438 15.121094 C 40.277344 15.121094 40.285156 15.117188 40.289062 15.113281 Z M 40.289062 15.113281 "/>
<path style=" stroke:none;fill-rule:nonzero;fill:rgb(5.098039%,4.705882%,13.333333%);fill-opacity:1;" d="M 40.273438 15.121094 L 40.277344 15.121094 L 40.277344 15.117188 Z M 40.273438 15.121094 "/>
<path style=" stroke:none;fill-rule:nonzero;fill:rgb(5.098039%,4.705882%,13.333333%);fill-opacity:1;" d="M 40.882812 19.753906 L 40.957031 19.710938 L 40.984375 19.695312 L 41.011719 19.667969 C 40.964844 19.691406 40.917969 19.71875 40.882812 19.753906 Z M 40.882812 19.753906 "/>
<path style=" stroke:none;fill-rule:nonzero;fill:rgb(5.098039%,4.705882%,13.333333%);fill-opacity:1;" d="M 40.402344 15.222656 L 40.328125 15.152344 L 40.277344 15.125 C 40.304688 15.171875 40.347656 15.207031 40.402344 15.222656 Z M 40.402344 15.222656 "/>
<path style=" stroke:none;fill-rule:nonzero;fill:rgb(5.098039%,4.705882%,13.333333%);fill-opacity:1;" d="M 21.890625 60.28125 C 21.832031 60.308594 21.78125 60.347656 21.742188 60.398438 L 21.785156 60.367188 C 21.816406 60.339844 21.863281 60.304688 21.890625 60.28125 Z M 21.890625 60.28125 "/>
<path style=" stroke:none;fill-rule:nonzero;fill:rgb(5.098039%,4.705882%,13.333333%);fill-opacity:1;" d="M 32.640625 58.171875 C 32.640625 58.105469 32.605469 58.117188 32.613281 58.351562 C 32.613281 58.335938 32.621094 58.316406 32.625 58.296875 C 32.628906 58.253906 32.632812 58.214844 32.640625 58.171875 Z M 32.640625 58.171875 "/>
<path style=" stroke:none;fill-rule:nonzero;fill:rgb(5.098039%,4.705882%,13.333333%);fill-opacity:1;" d="M 31.523438 60.28125 C 31.464844 60.308594 31.414062 60.347656 31.375 60.398438 L 31.421875 60.367188 C 31.453125 60.339844 31.496094 60.304688 31.523438 60.28125 Z M 31.523438 60.28125 "/>
<path style=" stroke:none;fill-rule:nonzero;fill:rgb(5.098039%,4.705882%,13.333333%);fill-opacity:1;" d="M 14.320312 60.785156 C 14.273438 60.746094 14.21875 60.722656 14.164062 60.710938 C 14.210938 60.734375 14.257812 60.757812 14.289062 60.773438 Z M 14.320312 60.785156 "/>
<path style=" stroke:none;fill-rule:nonzero;fill:rgb(5.098039%,4.705882%,13.333333%);fill-opacity:1;" d="M 12.617188 59.15625 C 12.609375 59.085938 12.589844 59.019531 12.554688 58.960938 C 12.578125 59.023438 12.597656 59.085938 12.613281 59.152344 Z M 12.617188 59.15625 "/>
<path style=" stroke:none;fill-rule:nonzero;fill:rgb(100%,86.666667%,0%);fill-opacity:1;" d="M 24.058594 30.027344 C 21.71875 31.027344 19.066406 32.160156 15.625 32.160156 C 14.1875 32.15625 12.753906 31.960938 11.371094 31.574219 L 13.75 55.957031 C 13.832031 56.976562 14.296875 57.925781 15.050781 58.621094 C 15.804688 59.3125 16.792969 59.695312 17.816406 59.695312 C 17.816406 59.695312 21.1875 59.871094 22.316406 59.871094 C 23.527344 59.871094 27.160156 59.695312 27.160156 59.695312 C 28.183594 59.695312 29.167969 59.3125 29.921875 58.621094 C 30.675781 57.925781 31.140625 56.976562 31.226562 55.957031 L 33.773438 29.011719 C 32.632812 28.625 31.484375 28.367188 30.191406 28.367188 C 27.949219 28.367188 26.144531 29.136719 24.058594 30.027344 Z M 24.058594 30.027344 "/>
<path style=" stroke:none;fill-rule:nonzero;fill:rgb(5.098039%,4.705882%,13.333333%);fill-opacity:1;" d="M 4.003906 19.625 L 4.046875 19.660156 L 4.070312 19.675781 C 4.050781 19.65625 4.03125 19.640625 4.003906 19.625 Z M 4.003906 19.625 "/>
<path style=" stroke:none;fill-rule:nonzero;fill:rgb(5.098039%,4.705882%,13.333333%);fill-opacity:1;" d="M 44.773438 17.375 L 44.417969 15.570312 C 44.09375 13.949219 43.363281 12.421875 41.699219 11.835938 C 41.167969 11.648438 40.5625 11.570312 40.152344 11.179688 C 39.742188 10.792969 39.625 10.191406 39.527344 9.632812 C 39.351562 8.609375 39.1875 7.585938 39.007812 6.5625 C 38.855469 5.683594 38.730469 4.695312 38.328125 3.890625 C 37.800781 2.808594 36.710938 2.175781 35.628906 1.757812 C 35.070312 1.550781 34.503906 1.375 33.929688 1.230469 C 31.21875 0.519531 28.371094 0.253906 25.585938 0.105469 C 22.238281 -0.078125 18.886719 -0.0234375 15.546875 0.273438 C 13.0625 0.496094 10.445312 0.769531 8.085938 1.628906 C 7.222656 1.941406 6.335938 2.320312 5.679688 2.984375 C 4.875 3.800781 4.609375 5.066406 5.199219 6.085938 C 5.617188 6.8125 6.324219 7.320312 7.074219 7.660156 C 8.054688 8.097656 9.074219 8.429688 10.121094 8.652344 C 13.039062 9.292969 16.058594 9.546875 19.039062 9.65625 C 22.339844 9.789062 25.648438 9.679688 28.9375 9.332031 C 29.75 9.242188 30.5625 9.136719 31.371094 9.011719 C 32.324219 8.863281 32.9375 7.621094 32.65625 6.753906 C 32.320312 5.714844 31.414062 5.3125 30.394531 5.46875 C 30.242188 5.492188 30.09375 5.515625 29.941406 5.535156 L 29.832031 5.550781 C 29.488281 5.597656 29.140625 5.636719 28.792969 5.675781 C 28.078125 5.75 27.363281 5.816406 26.644531 5.863281 C 25.035156 5.976562 23.417969 6.027344 21.804688 6.03125 C 20.21875 6.03125 18.632812 5.984375 17.050781 5.882812 C 16.332031 5.832031 15.609375 5.773438 14.890625 5.699219 C 14.566406 5.667969 14.238281 5.632812 13.914062 5.589844 L 13.605469 5.550781 L 13.535156 5.542969 L 13.214844 5.496094 C 12.558594 5.398438 11.902344 5.28125 11.25 5.144531 C 11.1875 5.132812 11.128906 5.09375 11.085938 5.042969 C 11.042969 4.988281 11.019531 4.925781 11.019531 4.859375 C 11.019531 4.789062 11.042969 4.726562 11.085938 4.671875 C 11.128906 4.621094 11.1875 4.585938 11.25 4.570312 L 11.261719 4.570312 C 11.828125 4.449219 12.394531 4.347656 12.964844 4.257812 C 13.152344 4.230469 13.34375 4.199219 13.535156 4.171875 L 13.539062 4.171875 C 13.894531 4.148438 14.253906 4.085938 14.609375 4.042969 C 17.695312 3.722656 20.800781 3.613281 23.902344 3.714844 C 25.40625 3.757812 26.914062 3.847656 28.410156 4 C 28.734375 4.03125 29.054688 4.066406 29.375 4.105469 C 29.496094 4.121094 29.621094 4.140625 29.742188 4.152344 L 29.992188 4.191406 C 30.71875 4.296875 31.4375 4.429688 32.15625 4.582031 C 33.21875 4.8125 34.585938 4.886719 35.058594 6.050781 C 35.210938 6.421875 35.277344 6.832031 35.359375 7.21875 L 35.46875 7.710938 C 35.46875 7.722656 35.472656 7.730469 35.472656 7.738281 C 35.722656 8.90625 35.972656 10.070312 36.226562 11.238281 C 36.242188 11.324219 36.246094 11.414062 36.226562 11.5 C 36.210938 11.585938 36.175781 11.667969 36.125 11.738281 C 36.074219 11.8125 36.007812 11.871094 35.933594 11.917969 C 35.855469 11.964844 35.773438 11.992188 35.6875 12.003906 L 35.679688 12.003906 L 35.527344 12.027344 L 35.375 12.046875 C 34.894531 12.109375 34.414062 12.167969 33.933594 12.222656 C 32.984375 12.328125 32.035156 12.421875 31.085938 12.5 C 29.195312 12.660156 27.304688 12.761719 25.40625 12.808594 C 24.441406 12.835938 23.472656 12.847656 22.507812 12.847656 C 18.664062 12.84375 14.824219 12.621094 11.003906 12.179688 C 10.589844 12.128906 10.175781 12.078125 9.765625 12.023438 C 10.085938 12.0625 9.53125 11.992188 9.417969 11.976562 C 9.15625 11.9375 8.894531 11.902344 8.628906 11.863281 C 7.75 11.730469 6.871094 11.566406 5.992188 11.425781 C 4.925781 11.25 3.910156 11.335938 2.945312 11.863281 C 2.15625 12.292969 1.515625 12.953125 1.113281 13.757812 C 0.699219 14.617188 0.574219 15.550781 0.390625 16.46875 C 0.203125 17.390625 -0.0859375 18.382812 0.0234375 19.328125 C 0.257812 21.367188 1.6875 23.023438 3.742188 23.394531 C 5.675781 23.746094 7.621094 24.027344 9.570312 24.269531 C 17.222656 25.207031 24.957031 25.316406 32.636719 24.605469 C 33.261719 24.546875 33.886719 24.480469 34.511719 24.414062 C 34.707031 24.390625 34.902344 24.414062 35.089844 24.480469 C 35.273438 24.542969 35.441406 24.648438 35.582031 24.785156 C 35.71875 24.925781 35.824219 25.089844 35.890625 25.277344 C 35.957031 25.460938 35.980469 25.65625 35.960938 25.851562 L 35.765625 27.738281 C 35.375 31.550781 34.984375 35.363281 34.59375 39.175781 C 34.183594 43.179688 33.773438 47.183594 33.359375 51.1875 C 33.242188 52.316406 33.125 53.441406 33.007812 54.570312 C 32.894531 55.679688 32.878906 56.824219 32.667969 57.917969 C 32.335938 59.644531 31.167969 60.703125 29.460938 61.089844 C 27.898438 61.445312 26.300781 61.632812 24.695312 61.644531 C 22.917969 61.65625 21.144531 61.578125 19.367188 61.585938 C 17.46875 61.597656 15.144531 61.421875 13.679688 60.011719 C 12.394531 58.773438 12.214844 56.835938 12.042969 55.160156 C 11.808594 52.941406 11.578125 50.722656 11.347656 48.503906 L 10.058594 36.164062 L 9.226562 28.183594 C 9.210938 28.050781 9.199219 27.917969 9.183594 27.785156 C 9.085938 26.835938 8.410156 25.902344 7.34375 25.949219 C 6.433594 25.992188 5.398438 26.765625 5.507812 27.785156 L 6.125 33.707031 L 7.402344 45.949219 C 7.765625 49.425781 8.128906 52.902344 8.488281 56.382812 C 8.558594 57.046875 8.625 57.714844 8.699219 58.382812 C 9.097656 62.023438 11.882812 63.984375 15.332031 64.539062 C 17.347656 64.863281 19.410156 64.929688 21.457031 64.960938 C 24.078125 65.003906 26.722656 65.105469 29.300781 64.628906 C 33.121094 63.929688 35.988281 61.382812 36.394531 57.433594 C 36.511719 56.292969 36.628906 55.152344 36.746094 54.011719 C 37.136719 50.238281 37.523438 46.464844 37.910156 42.691406 L 39.175781 30.363281 L 39.757812 24.710938 C 39.785156 24.433594 39.90625 24.167969 40.09375 23.960938 C 40.285156 23.753906 40.539062 23.613281 40.816406 23.558594 C 41.90625 23.347656 42.953125 22.984375 43.730469 22.152344 C 44.964844 20.832031 45.210938 19.109375 44.773438 17.375 Z M 3.6875 18.59375 C 3.703125 18.585938 3.671875 18.726562 3.660156 18.792969 C 3.65625 18.691406 3.664062 18.601562 3.6875 18.59375 Z M 3.792969 19.410156 C 3.800781 19.40625 3.828125 19.4375 3.855469 19.480469 C 3.8125 19.441406 3.789062 19.414062 3.792969 19.410156 Z M 3.898438 19.546875 C 3.933594 19.613281 3.953125 19.652344 3.898438 19.546875 Z M 4.105469 19.71875 L 4.113281 19.71875 C 4.113281 19.722656 4.121094 19.730469 4.125 19.734375 C 4.121094 19.730469 4.113281 19.722656 4.105469 19.71875 Z M 40.765625 19.464844 C 40.371094 19.835938 39.78125 20.007812 39.195312 20.097656 C 32.644531 21.066406 25.996094 21.558594 19.375 21.339844 C 14.632812 21.179688 9.945312 20.652344 5.25 19.992188 C 4.789062 19.925781 4.292969 19.84375 3.976562 19.503906 C 3.378906 18.867188 3.671875 17.582031 3.828125 16.808594 C 3.96875 16.101562 4.242188 15.160156 5.082031 15.0625 C 6.398438 14.90625 7.921875 15.460938 9.222656 15.65625 C 10.789062 15.894531 12.359375 16.085938 13.933594 16.230469 C 20.664062 16.84375 27.503906 16.746094 34.203125 15.851562 C 35.425781 15.6875 36.640625 15.496094 37.855469 15.28125 C 38.933594 15.085938 40.132812 14.722656 40.785156 15.839844 C 41.230469 16.601562 41.289062 17.621094 41.222656 18.480469 C 41.199219 18.855469 41.035156 19.207031 40.761719 19.464844 Z M 40.765625 19.464844 "/>
</g>
</svg>
