<?xml version="1.0" encoding="UTF-8"?>
<svg xmlns="http://www.w3.org/2000/svg" xmlns:xlink="http://www.w3.org/1999/xlink" width="125px" height="35px" viewBox="0 0 124 35" version="1.1">
<g id="surface1">
<path style=" stroke:none;fill-rule:nonzero;fill:rgb(100%,86.666667%,0%);fill-opacity:1;" d="M 0 5.601562 C 0 2.507812 2.492188 0 5.570312 0 L 118.359375 0 C 121.433594 0 123.925781 2.507812 123.925781 5.601562 L 123.925781 29.398438 C 123.925781 32.492188 121.433594 35 118.359375 35 L 5.570312 35 C 2.492188 35 0 32.492188 0 29.398438 Z M 0 5.601562 "/>
<path style=" stroke:none;fill-rule:nonzero;fill:rgb(5.098039%,4.705882%,13.333333%);fill-opacity:1;" d="M 24.917969 11.511719 L 24.902344 11.5 L 24.867188 11.492188 C 24.882812 11.503906 24.898438 11.511719 24.917969 11.511719 Z M 24.917969 11.511719 "/>
<path style=" stroke:none;fill-rule:nonzero;fill:rgb(5.098039%,4.705882%,13.333333%);fill-opacity:1;" d="M 25.144531 13.109375 L 25.125 13.117188 Z M 25.144531 13.109375 "/>
<path style=" stroke:none;fill-rule:nonzero;fill:rgb(5.098039%,4.705882%,13.333333%);fill-opacity:1;" d="M 24.925781 11.507812 C 24.921875 11.507812 24.921875 11.507812 24.917969 11.507812 C 24.917969 11.507812 24.917969 11.507812 24.917969 11.511719 C 24.921875 11.511719 24.921875 11.507812 24.925781 11.507812 Z M 24.925781 11.507812 "/>
<path style=" stroke:none;fill-rule:nonzero;fill:rgb(5.098039%,4.705882%,13.333333%);fill-opacity:1;" d="M 24.917969 11.511719 L 24.921875 11.511719 L 24.921875 11.507812 Z M 24.917969 11.511719 "/>
<path style=" stroke:none;fill-rule:nonzero;fill:rgb(5.098039%,4.705882%,13.333333%);fill-opacity:1;" d="M 25.128906 13.109375 L 25.15625 13.09375 L 25.171875 13.078125 C 25.15625 13.085938 25.140625 13.09375 25.128906 13.109375 Z M 25.128906 13.109375 "/>
<path style=" stroke:none;fill-rule:nonzero;fill:rgb(5.098039%,4.705882%,13.333333%);fill-opacity:1;" d="M 24.960938 11.546875 L 24.9375 11.523438 L 24.921875 11.511719 C 24.929688 11.527344 24.945312 11.539062 24.960938 11.546875 Z M 24.960938 11.546875 "/>
<path style=" stroke:none;fill-rule:nonzero;fill:rgb(5.098039%,4.705882%,13.333333%);fill-opacity:1;" d="M 18.628906 27.074219 C 18.609375 27.082031 18.59375 27.097656 18.578125 27.113281 L 18.59375 27.105469 C 18.605469 27.09375 18.621094 27.082031 18.628906 27.074219 Z M 18.628906 27.074219 "/>
<path style=" stroke:none;fill-rule:nonzero;fill:rgb(5.098039%,4.705882%,13.333333%);fill-opacity:1;" d="M 22.308594 26.347656 C 22.308594 26.324219 22.296875 26.328125 22.300781 26.410156 C 22.300781 26.402344 22.300781 26.394531 22.304688 26.390625 C 22.304688 26.375 22.304688 26.359375 22.308594 26.347656 Z M 22.308594 26.347656 "/>
<path style=" stroke:none;fill-rule:nonzero;fill:rgb(5.098039%,4.705882%,13.333333%);fill-opacity:1;" d="M 21.929688 27.074219 C 21.90625 27.082031 21.890625 27.097656 21.875 27.113281 L 21.890625 27.105469 C 21.902344 27.09375 21.917969 27.082031 21.929688 27.074219 Z M 21.929688 27.074219 "/>
<path style=" stroke:none;fill-rule:nonzero;fill:rgb(5.098039%,4.705882%,13.333333%);fill-opacity:1;" d="M 16.039062 27.246094 C 16.023438 27.234375 16.003906 27.226562 15.984375 27.222656 C 16 27.230469 16.015625 27.238281 16.027344 27.242188 Z M 16.039062 27.246094 "/>
<path style=" stroke:none;fill-rule:nonzero;fill:rgb(5.098039%,4.705882%,13.333333%);fill-opacity:1;" d="M 15.457031 26.6875 C 15.453125 26.664062 15.445312 26.640625 15.433594 26.617188 C 15.441406 26.640625 15.449219 26.664062 15.457031 26.683594 Z M 15.457031 26.6875 "/>
<path style=" stroke:none;fill-rule:nonzero;fill:rgb(100%,100%,100%);fill-opacity:1;" d="M 19.371094 16.648438 C 18.570312 16.992188 17.664062 17.382812 16.484375 17.382812 C 15.992188 17.382812 15.503906 17.3125 15.027344 17.179688 L 15.84375 25.582031 C 15.871094 25.933594 16.03125 26.261719 16.289062 26.5 C 16.546875 26.738281 16.882812 26.871094 17.234375 26.871094 C 17.234375 26.871094 18.390625 26.933594 18.773438 26.933594 C 19.1875 26.933594 20.429688 26.871094 20.429688 26.871094 C 20.78125 26.871094 21.121094 26.738281 21.378906 26.5 C 21.636719 26.261719 21.792969 25.933594 21.824219 25.582031 L 22.695312 16.296875 C 22.304688 16.164062 21.910156 16.074219 21.46875 16.074219 C 20.703125 16.074219 20.085938 16.339844 19.371094 16.648438 Z M 19.371094 16.648438 "/>
<path style=" stroke:none;fill-rule:nonzero;fill:rgb(5.098039%,4.705882%,13.333333%);fill-opacity:1;" d="M 12.511719 13.0625 L 12.53125 13.082031 C 12.527344 13.074219 12.519531 13.066406 12.511719 13.0625 Z M 12.511719 13.0625 "/>
<path style=" stroke:none;fill-rule:nonzero;fill:rgb(5.098039%,4.705882%,13.333333%);fill-opacity:1;" d="M 26.460938 12.285156 L 26.339844 11.664062 C 26.226562 11.109375 25.980469 10.582031 25.410156 10.378906 C 25.226562 10.3125 25.019531 10.285156 24.878906 10.152344 C 24.738281 10.019531 24.699219 9.8125 24.664062 9.621094 C 24.605469 9.265625 24.550781 8.914062 24.488281 8.5625 C 24.433594 8.257812 24.394531 7.917969 24.253906 7.640625 C 24.074219 7.269531 23.703125 7.050781 23.332031 6.90625 C 23.140625 6.832031 22.945312 6.773438 22.75 6.722656 C 21.824219 6.480469 20.847656 6.386719 19.894531 6.335938 C 18.75 6.273438 17.601562 6.292969 16.460938 6.394531 C 15.609375 6.472656 14.714844 6.566406 13.90625 6.859375 C 13.613281 6.96875 13.308594 7.097656 13.082031 7.328125 C 12.808594 7.609375 12.71875 8.046875 12.917969 8.398438 C 13.0625 8.648438 13.304688 8.824219 13.558594 8.941406 C 13.894531 9.089844 14.246094 9.203125 14.601562 9.28125 C 15.601562 9.503906 16.632812 9.589844 17.65625 9.628906 C 18.785156 9.671875 19.917969 9.636719 21.042969 9.515625 C 21.320312 9.484375 21.597656 9.449219 21.875 9.40625 C 22.199219 9.355469 22.410156 8.925781 22.3125 8.625 C 22.199219 8.269531 21.890625 8.128906 21.539062 8.183594 C 21.488281 8.191406 21.4375 8.199219 21.386719 8.207031 L 21.347656 8.214844 C 21.230469 8.226562 21.109375 8.242188 20.992188 8.253906 C 20.746094 8.28125 20.503906 8.304688 20.257812 8.320312 C 19.707031 8.359375 19.152344 8.378906 18.601562 8.378906 C 18.058594 8.378906 17.515625 8.363281 16.976562 8.328125 C 16.726562 8.308594 16.480469 8.289062 16.234375 8.265625 C 16.125 8.253906 16.011719 8.242188 15.902344 8.226562 L 15.792969 8.214844 L 15.773438 8.210938 L 15.660156 8.195312 C 15.4375 8.160156 15.210938 8.121094 14.988281 8.074219 C 14.96875 8.066406 14.945312 8.054688 14.933594 8.039062 C 14.917969 8.019531 14.910156 7.996094 14.910156 7.972656 C 14.910156 7.949219 14.917969 7.929688 14.933594 7.910156 C 14.945312 7.890625 14.96875 7.878906 14.988281 7.875 L 14.992188 7.875 C 15.1875 7.832031 15.378906 7.796875 15.574219 7.769531 C 15.640625 7.757812 15.707031 7.746094 15.769531 7.738281 L 15.773438 7.738281 C 15.894531 7.730469 16.015625 7.707031 16.140625 7.691406 C 17.195312 7.582031 18.257812 7.542969 19.320312 7.582031 C 19.832031 7.59375 20.347656 7.625 20.863281 7.679688 C 20.972656 7.691406 21.082031 7.703125 21.191406 7.714844 C 21.234375 7.71875 21.273438 7.726562 21.316406 7.730469 L 21.402344 7.742188 C 21.652344 7.78125 21.898438 7.828125 22.144531 7.878906 C 22.507812 7.957031 22.972656 7.984375 23.136719 8.386719 C 23.1875 8.511719 23.210938 8.652344 23.238281 8.789062 L 23.277344 8.957031 C 23.277344 8.960938 23.277344 8.964844 23.277344 8.96875 C 23.363281 9.367188 23.449219 9.769531 23.535156 10.171875 C 23.542969 10.203125 23.542969 10.234375 23.535156 10.261719 C 23.53125 10.292969 23.519531 10.320312 23.5 10.34375 C 23.484375 10.371094 23.460938 10.390625 23.433594 10.40625 C 23.410156 10.421875 23.378906 10.433594 23.351562 10.4375 L 23.347656 10.4375 L 23.246094 10.453125 C 23.078125 10.472656 22.914062 10.492188 22.75 10.511719 C 22.425781 10.550781 22.101562 10.582031 21.777344 10.609375 C 21.128906 10.664062 20.480469 10.699219 19.832031 10.714844 C 19.503906 10.722656 19.171875 10.726562 18.839844 10.726562 C 17.527344 10.726562 16.210938 10.648438 14.90625 10.496094 C 14.761719 10.480469 14.621094 10.460938 14.480469 10.445312 C 14.589844 10.457031 14.402344 10.433594 14.363281 10.425781 C 14.273438 10.414062 14.183594 10.402344 14.09375 10.386719 C 13.789062 10.34375 13.492188 10.285156 13.191406 10.238281 C 12.824219 10.175781 12.476562 10.207031 12.148438 10.386719 C 11.878906 10.535156 11.660156 10.765625 11.519531 11.042969 C 11.378906 11.335938 11.335938 11.660156 11.273438 11.976562 C 11.210938 12.292969 11.109375 12.632812 11.148438 12.960938 C 11.226562 13.664062 11.71875 14.234375 12.421875 14.363281 C 13.082031 14.484375 13.746094 14.582031 14.414062 14.664062 C 17.035156 14.988281 19.679688 15.023438 22.308594 14.777344 C 22.523438 14.757812 22.734375 14.738281 22.949219 14.714844 C 23.015625 14.707031 23.082031 14.714844 23.144531 14.734375 C 23.210938 14.757812 23.265625 14.792969 23.316406 14.839844 C 23.363281 14.890625 23.398438 14.945312 23.421875 15.011719 C 23.445312 15.074219 23.453125 15.140625 23.445312 15.207031 L 23.378906 15.859375 C 23.246094 17.171875 23.109375 18.488281 22.976562 19.800781 C 22.835938 21.179688 22.695312 22.558594 22.554688 23.941406 C 22.515625 24.328125 22.472656 24.71875 22.433594 25.105469 C 22.394531 25.488281 22.390625 25.882812 22.316406 26.261719 C 22.203125 26.855469 21.804688 27.21875 21.21875 27.351562 C 20.6875 27.476562 20.140625 27.539062 19.589844 27.542969 C 18.984375 27.546875 18.375 27.519531 17.765625 27.523438 C 17.117188 27.527344 16.320312 27.46875 15.820312 26.980469 C 15.378906 26.554688 15.320312 25.886719 15.261719 25.308594 C 15.179688 24.542969 15.101562 23.78125 15.023438 23.015625 L 14.582031 18.761719 L 14.296875 16.011719 C 14.292969 15.964844 14.285156 15.921875 14.28125 15.875 C 14.25 15.546875 14.015625 15.226562 13.652344 15.242188 C 13.339844 15.257812 12.988281 15.523438 13.023438 15.875 L 13.234375 17.914062 L 13.671875 22.132812 C 13.796875 23.332031 13.921875 24.53125 14.042969 25.730469 C 14.070312 25.960938 14.089844 26.191406 14.117188 26.417969 C 14.253906 27.675781 15.207031 28.351562 16.386719 28.539062 C 17.074219 28.652344 17.78125 28.675781 18.480469 28.6875 C 19.378906 28.699219 20.285156 28.734375 21.167969 28.574219 C 22.472656 28.332031 23.453125 27.453125 23.59375 26.09375 C 23.632812 25.699219 23.675781 25.304688 23.714844 24.914062 C 23.847656 23.613281 23.980469 22.3125 24.113281 21.011719 L 24.546875 16.761719 L 24.742188 14.816406 C 24.753906 14.71875 24.792969 14.628906 24.859375 14.558594 C 24.925781 14.484375 25.011719 14.4375 25.105469 14.417969 C 25.480469 14.34375 25.835938 14.21875 26.101562 13.933594 C 26.527344 13.480469 26.609375 12.886719 26.460938 12.285156 Z M 12.402344 12.707031 C 12.40625 12.703125 12.394531 12.753906 12.390625 12.777344 C 12.390625 12.742188 12.394531 12.710938 12.402344 12.707031 Z M 12.4375 12.988281 C 12.441406 12.988281 12.449219 13 12.457031 13.011719 C 12.445312 13 12.4375 12.992188 12.4375 12.988281 Z M 12.472656 13.035156 C 12.484375 13.058594 12.492188 13.074219 12.472656 13.035156 Z M 12.542969 13.09375 L 12.546875 13.09375 C 12.546875 13.097656 12.550781 13.097656 12.550781 13.101562 C 12.550781 13.097656 12.546875 13.097656 12.542969 13.09375 Z M 25.089844 13.007812 C 24.953125 13.136719 24.753906 13.195312 24.550781 13.226562 C 22.308594 13.558594 20.035156 13.730469 17.769531 13.65625 C 16.148438 13.597656 14.542969 13.417969 12.9375 13.191406 C 12.777344 13.167969 12.609375 13.136719 12.5 13.023438 C 12.296875 12.800781 12.394531 12.359375 12.449219 12.09375 C 12.496094 11.847656 12.589844 11.523438 12.878906 11.492188 C 13.328125 11.4375 13.851562 11.628906 14.296875 11.695312 C 14.832031 11.777344 15.367188 11.84375 15.90625 11.894531 C 18.210938 12.105469 20.550781 12.070312 22.84375 11.761719 C 23.261719 11.707031 23.679688 11.640625 24.09375 11.566406 C 24.460938 11.5 24.871094 11.375 25.09375 11.757812 C 25.25 12.019531 25.269531 12.371094 25.246094 12.667969 C 25.238281 12.796875 25.183594 12.917969 25.089844 13.007812 Z M 25.089844 13.007812 "/>
<path style=" stroke:none;fill-rule:evenodd;fill:rgb(5.098039%,4.705882%,13.72549%);fill-opacity:1;" d="M 38.6875 19.269531 C 38.554688 19.523438 38.375 19.742188 38.148438 19.925781 C 37.917969 20.113281 37.652344 20.261719 37.34375 20.378906 C 37.039062 20.496094 36.734375 20.574219 36.421875 20.613281 C 36.113281 20.65625 35.8125 20.652344 35.523438 20.605469 C 35.234375 20.554688 34.984375 20.460938 34.78125 20.3125 L 35.011719 17.921875 C 35.222656 17.847656 35.488281 17.773438 35.808594 17.695312 C 36.128906 17.621094 36.457031 17.566406 36.792969 17.53125 C 37.132812 17.5 37.453125 17.503906 37.753906 17.542969 C 38.054688 17.582031 38.292969 17.679688 38.46875 17.832031 C 38.5625 17.921875 38.644531 18.015625 38.707031 18.117188 C 38.773438 18.21875 38.8125 18.324219 38.828125 18.433594 C 38.867188 18.742188 38.816406 19.019531 38.6875 19.269531 Z M 35.359375 14.171875 C 35.511719 14.078125 35.695312 13.992188 35.910156 13.921875 C 36.125 13.847656 36.34375 13.796875 36.570312 13.769531 C 36.796875 13.738281 37.015625 13.734375 37.230469 13.757812 C 37.445312 13.777344 37.632812 13.839844 37.796875 13.9375 C 37.960938 14.035156 38.082031 14.179688 38.164062 14.363281 C 38.242188 14.550781 38.265625 14.785156 38.230469 15.070312 C 38.199219 15.292969 38.109375 15.484375 37.960938 15.640625 C 37.8125 15.800781 37.628906 15.929688 37.417969 16.035156 C 37.203125 16.140625 36.972656 16.226562 36.734375 16.285156 C 36.496094 16.347656 36.261719 16.394531 36.042969 16.421875 C 35.820312 16.453125 35.628906 16.472656 35.464844 16.476562 C 35.300781 16.484375 35.191406 16.488281 35.140625 16.488281 Z M 39.863281 17.722656 C 39.75 17.46875 39.59375 17.246094 39.394531 17.050781 C 39.199219 16.859375 38.96875 16.71875 38.699219 16.632812 C 38.8125 16.535156 38.929688 16.386719 39.042969 16.183594 C 39.15625 15.980469 39.25 15.757812 39.332031 15.515625 C 39.410156 15.277344 39.464844 15.035156 39.496094 14.789062 C 39.523438 14.546875 39.511719 14.335938 39.460938 14.160156 C 39.335938 13.722656 39.144531 13.382812 38.878906 13.132812 C 38.613281 12.886719 38.304688 12.714844 37.949219 12.621094 C 37.597656 12.527344 37.210938 12.507812 36.785156 12.5625 C 36.359375 12.617188 35.921875 12.722656 35.480469 12.882812 C 35.480469 12.847656 35.484375 12.808594 35.492188 12.769531 C 35.5 12.726562 35.5 12.6875 35.5 12.640625 C 35.5 12.535156 35.449219 12.4375 35.339844 12.359375 C 35.230469 12.277344 35.105469 12.230469 34.960938 12.214844 C 34.820312 12.203125 34.683594 12.234375 34.546875 12.308594 C 34.414062 12.386719 34.320312 12.527344 34.269531 12.730469 C 34.210938 13.386719 34.152344 14.066406 34.09375 14.773438 C 34.035156 15.480469 33.976562 16.195312 33.910156 16.914062 C 33.84375 17.636719 33.777344 18.351562 33.714844 19.0625 C 33.648438 19.773438 33.582031 20.457031 33.515625 21.113281 C 33.539062 21.308594 33.59375 21.460938 33.679688 21.570312 C 33.765625 21.679688 33.871094 21.746094 33.984375 21.765625 C 34.101562 21.789062 34.222656 21.769531 34.351562 21.707031 C 34.476562 21.644531 34.589844 21.539062 34.683594 21.386719 C 34.972656 21.546875 35.300781 21.648438 35.664062 21.695312 C 36.027344 21.742188 36.398438 21.742188 36.773438 21.695312 C 37.148438 21.648438 37.515625 21.558594 37.878906 21.429688 C 38.242188 21.296875 38.574219 21.132812 38.871094 20.9375 C 39.171875 20.742188 39.421875 20.515625 39.625 20.265625 C 39.828125 20.011719 39.964844 19.742188 40.027344 19.449219 C 40.09375 19.152344 40.113281 18.851562 40.082031 18.554688 C 40.054688 18.257812 39.980469 17.980469 39.863281 17.722656 Z M 39.863281 17.722656 "/>
<path style=" stroke:none;fill-rule:evenodd;fill:rgb(5.098039%,4.705882%,13.72549%);fill-opacity:1;" d="M 50.507812 23.492188 C 50.46875 23.734375 50.410156 23.988281 50.339844 24.253906 C 50.265625 24.519531 50.179688 24.761719 50.082031 24.980469 C 49.984375 25.199219 49.875 25.375 49.753906 25.511719 C 49.636719 25.644531 49.503906 25.703125 49.367188 25.679688 C 49.257812 25.664062 49.191406 25.597656 49.160156 25.472656 C 49.132812 25.347656 49.132812 25.195312 49.160156 25.011719 C 49.191406 24.832031 49.246094 24.625 49.328125 24.394531 C 49.414062 24.164062 49.515625 23.9375 49.636719 23.710938 C 49.753906 23.488281 49.890625 23.269531 50.042969 23.0625 C 50.195312 22.855469 50.355469 22.683594 50.523438 22.542969 C 50.558594 22.585938 50.578125 22.695312 50.574219 22.871094 C 50.570312 23.046875 50.546875 23.253906 50.507812 23.492188 Z M 54.207031 18.75 C 54.109375 18.640625 53.988281 18.582031 53.84375 18.566406 C 53.703125 18.550781 53.558594 18.632812 53.414062 18.804688 C 53.320312 18.980469 53.199219 19.148438 53.054688 19.308594 C 52.910156 19.46875 52.757812 19.613281 52.601562 19.746094 C 52.445312 19.875 52.296875 19.988281 52.15625 20.085938 C 52.011719 20.179688 51.902344 20.25 51.820312 20.292969 C 51.792969 20.058594 51.777344 19.808594 51.773438 19.539062 C 51.769531 19.269531 51.773438 18.996094 51.789062 18.71875 C 51.8125 18.324219 51.855469 17.929688 51.925781 17.527344 C 51.996094 17.125 52.09375 16.734375 52.226562 16.347656 C 52.226562 16.144531 52.179688 15.976562 52.082031 15.851562 C 51.988281 15.722656 51.875 15.640625 51.742188 15.609375 C 51.605469 15.578125 51.46875 15.59375 51.324219 15.664062 C 51.183594 15.734375 51.0625 15.859375 50.960938 16.039062 C 50.875 16.28125 50.773438 16.550781 50.660156 16.851562 C 50.546875 17.148438 50.421875 17.453125 50.277344 17.761719 C 50.136719 18.070312 49.980469 18.371094 49.804688 18.664062 C 49.628906 18.957031 49.4375 19.214844 49.230469 19.441406 C 49.023438 19.664062 48.796875 19.84375 48.554688 19.96875 C 48.3125 20.097656 48.046875 20.152344 47.765625 20.140625 C 47.632812 20.101562 47.539062 20.003906 47.480469 19.84375 C 47.421875 19.683594 47.386719 19.484375 47.378906 19.242188 C 47.367188 19.003906 47.378906 18.738281 47.410156 18.449219 C 47.441406 18.164062 47.484375 17.878906 47.539062 17.59375 C 47.59375 17.308594 47.65625 17.039062 47.71875 16.785156 C 47.785156 16.527344 47.847656 16.3125 47.90625 16.140625 C 47.992188 15.929688 47.992188 15.75 47.90625 15.609375 C 47.820312 15.46875 47.699219 15.371094 47.546875 15.324219 C 47.394531 15.277344 47.234375 15.28125 47.066406 15.332031 C 46.898438 15.382812 46.777344 15.496094 46.707031 15.667969 C 46.582031 15.96875 46.46875 16.304688 46.367188 16.675781 C 46.265625 17.046875 46.183594 17.429688 46.121094 17.828125 C 46.0625 18.226562 46.027344 18.617188 46.019531 19.007812 C 46.019531 19.035156 46.019531 19.058594 46.019531 19.082031 C 45.859375 19.507812 45.710938 19.828125 45.566406 20.039062 C 45.378906 20.316406 45.171875 20.4375 44.9375 20.402344 C 44.835938 20.359375 44.769531 20.253906 44.738281 20.09375 C 44.703125 19.933594 44.695312 19.738281 44.703125 19.503906 C 44.714844 19.273438 44.742188 19.007812 44.785156 18.714844 C 44.828125 18.417969 44.882812 18.113281 44.949219 17.796875 C 45.015625 17.476562 45.085938 17.160156 45.15625 16.839844 C 45.230469 16.519531 45.296875 16.214844 45.351562 15.933594 C 45.347656 15.675781 45.273438 15.480469 45.128906 15.347656 C 44.988281 15.210938 44.789062 15.160156 44.535156 15.1875 C 44.359375 15.261719 44.230469 15.355469 44.148438 15.472656 C 44.0625 15.589844 43.996094 15.738281 43.945312 15.921875 C 43.917969 16.015625 43.875 16.203125 43.816406 16.488281 C 43.757812 16.773438 43.683594 17.097656 43.589844 17.46875 C 43.5 17.835938 43.394531 18.21875 43.269531 18.621094 C 43.144531 19.019531 43.007812 19.382812 42.855469 19.707031 C 42.703125 20.03125 42.535156 20.292969 42.355469 20.488281 C 42.171875 20.683594 41.976562 20.765625 41.765625 20.730469 C 41.648438 20.707031 41.574219 20.585938 41.539062 20.367188 C 41.507812 20.148438 41.503906 19.878906 41.523438 19.558594 C 41.546875 19.238281 41.589844 18.886719 41.65625 18.503906 C 41.722656 18.121094 41.789062 17.761719 41.855469 17.417969 C 41.925781 17.074219 41.988281 16.773438 42.046875 16.511719 C 42.105469 16.25 42.144531 16.074219 42.167969 15.988281 C 42.167969 15.773438 42.121094 15.605469 42.027344 15.476562 C 41.933594 15.351562 41.816406 15.269531 41.683594 15.238281 C 41.546875 15.207031 41.410156 15.222656 41.269531 15.292969 C 41.125 15.363281 41.003906 15.488281 40.902344 15.667969 C 40.867188 15.867188 40.820312 16.09375 40.761719 16.351562 C 40.703125 16.609375 40.648438 16.878906 40.59375 17.148438 C 40.539062 17.421875 40.488281 17.691406 40.4375 17.953125 C 40.390625 18.214844 40.355469 18.445312 40.335938 18.640625 C 40.320312 18.792969 40.304688 18.984375 40.285156 19.203125 C 40.269531 19.425781 40.257812 19.660156 40.257812 19.910156 C 40.257812 20.15625 40.277344 20.402344 40.3125 20.648438 C 40.351562 20.890625 40.414062 21.117188 40.511719 21.320312 C 40.605469 21.523438 40.738281 21.691406 40.910156 21.820312 C 41.078125 21.953125 41.296875 22.027344 41.558594 22.039062 C 41.828125 22.054688 42.0625 22.035156 42.261719 21.980469 C 42.460938 21.925781 42.640625 21.839844 42.804688 21.722656 C 42.96875 21.605469 43.117188 21.46875 43.253906 21.308594 C 43.386719 21.148438 43.519531 20.972656 43.652344 20.785156 C 43.777344 21.0625 43.933594 21.277344 44.132812 21.429688 C 44.328125 21.582031 44.535156 21.671875 44.753906 21.703125 C 44.972656 21.730469 45.195312 21.699219 45.417969 21.609375 C 45.644531 21.519531 45.847656 21.363281 46.03125 21.144531 C 46.148438 21.011719 46.261719 20.859375 46.367188 20.691406 C 46.414062 20.769531 46.460938 20.84375 46.515625 20.914062 C 46.695312 21.148438 46.933594 21.308594 47.242188 21.394531 C 47.566406 21.484375 47.886719 21.496094 48.199219 21.441406 C 48.511719 21.382812 48.8125 21.277344 49.09375 21.121094 C 49.378906 20.96875 49.640625 20.785156 49.886719 20.570312 C 50.128906 20.355469 50.34375 20.132812 50.523438 19.898438 C 50.515625 20.066406 50.511719 20.226562 50.511719 20.375 C 50.511719 20.523438 50.507812 20.683594 50.503906 20.859375 C 50.136719 21.117188 49.796875 21.421875 49.472656 21.777344 C 49.148438 22.136719 48.863281 22.515625 48.621094 22.921875 C 48.375 23.324219 48.1875 23.734375 48.046875 24.148438 C 47.910156 24.566406 47.84375 24.953125 47.847656 25.3125 C 47.851562 25.675781 47.933594 25.988281 48.101562 26.257812 C 48.269531 26.527344 48.542969 26.722656 48.921875 26.839844 C 49.3125 26.960938 49.660156 26.964844 49.957031 26.847656 C 50.253906 26.730469 50.515625 26.539062 50.738281 26.269531 C 50.957031 26 51.140625 25.675781 51.28125 25.292969 C 51.425781 24.910156 51.535156 24.511719 51.621094 24.09375 C 51.703125 23.679688 51.757812 23.273438 51.777344 22.871094 C 51.800781 22.46875 51.800781 22.113281 51.777344 21.800781 C 52.402344 21.539062 52.917969 21.207031 53.316406 20.804688 C 53.714844 20.40625 54.046875 19.984375 54.308594 19.539062 C 54.390625 19.429688 54.417969 19.296875 54.390625 19.144531 C 54.367188 18.992188 54.304688 18.859375 54.207031 18.75 Z M 54.207031 18.75 "/>
<path style=" stroke:none;fill-rule:evenodd;fill:rgb(5.098039%,4.705882%,13.72549%);fill-opacity:1;" d="M 67.964844 18.050781 C 67.988281 17.882812 68.019531 17.707031 68.066406 17.523438 C 68.109375 17.335938 68.164062 17.15625 68.226562 16.980469 C 68.292969 16.804688 68.371094 16.65625 68.457031 16.527344 C 68.542969 16.398438 68.636719 16.308594 68.734375 16.253906 C 68.832031 16.199219 68.933594 16.207031 69.035156 16.269531 C 69.144531 16.335938 69.210938 16.476562 69.238281 16.6875 C 69.261719 16.898438 69.238281 17.125 69.160156 17.363281 C 69.085938 17.605469 68.949219 17.828125 68.753906 18.042969 C 68.554688 18.253906 68.289062 18.390625 67.957031 18.457031 C 67.941406 18.355469 67.945312 18.21875 67.964844 18.050781 Z M 71.746094 18.5 C 71.625 18.464844 71.511719 18.460938 71.402344 18.488281 C 71.292969 18.519531 71.222656 18.59375 71.195312 18.71875 C 71.136719 18.953125 71.042969 19.191406 70.917969 19.433594 C 70.789062 19.679688 70.632812 19.910156 70.449219 20.128906 C 70.261719 20.347656 70.054688 20.539062 69.820312 20.707031 C 69.589844 20.875 69.34375 20.996094 69.089844 21.066406 C 68.835938 21.148438 68.625 21.15625 68.457031 21.09375 C 68.289062 21.035156 68.15625 20.929688 68.058594 20.777344 C 67.960938 20.628906 67.890625 20.449219 67.847656 20.238281 C 67.804688 20.027344 67.777344 19.808594 67.769531 19.582031 C 68.183594 19.609375 68.554688 19.535156 68.878906 19.359375 C 69.199219 19.179688 69.476562 18.941406 69.699219 18.648438 C 69.925781 18.351562 70.097656 18.019531 70.214844 17.652344 C 70.328125 17.285156 70.394531 16.917969 70.410156 16.554688 C 70.417969 16.210938 70.367188 15.921875 70.257812 15.6875 C 70.148438 15.449219 70 15.265625 69.816406 15.132812 C 69.628906 15.003906 69.417969 14.925781 69.175781 14.90625 C 68.9375 14.882812 68.695312 14.914062 68.445312 15.003906 C 68.148438 15.105469 67.894531 15.269531 67.6875 15.5 C 67.480469 15.730469 67.308594 15.996094 67.171875 16.296875 C 67.03125 16.601562 66.921875 16.925781 66.84375 17.277344 C 66.761719 17.625 66.703125 17.96875 66.667969 18.308594 C 66.636719 18.613281 66.617188 18.902344 66.613281 19.183594 C 66.597656 19.21875 66.582031 19.253906 66.566406 19.292969 C 66.453125 19.550781 66.320312 19.804688 66.171875 20.050781 C 66.023438 20.300781 65.859375 20.507812 65.675781 20.675781 C 65.492188 20.84375 65.304688 20.902344 65.109375 20.851562 C 64.992188 20.820312 64.929688 20.6875 64.917969 20.445312 C 64.90625 20.203125 64.917969 19.90625 64.957031 19.550781 C 64.992188 19.191406 65.035156 18.804688 65.082031 18.390625 C 65.128906 17.976562 65.152344 17.578125 65.152344 17.199219 C 65.152344 16.871094 65.089844 16.558594 64.964844 16.253906 C 64.84375 15.953125 64.675781 15.699219 64.460938 15.5 C 64.246094 15.300781 63.996094 15.167969 63.710938 15.101562 C 63.429688 15.035156 63.125 15.078125 62.796875 15.234375 C 62.46875 15.386719 62.207031 15.601562 62.015625 15.878906 C 61.824219 16.15625 61.648438 16.445312 61.488281 16.75 C 61.429688 16.519531 61.34375 16.300781 61.230469 16.101562 C 61.117188 15.902344 60.980469 15.726562 60.816406 15.578125 C 60.652344 15.425781 60.46875 15.3125 60.265625 15.226562 C 60.0625 15.144531 59.847656 15.101562 59.621094 15.101562 C 59.402344 15.101562 59.203125 15.144531 59.015625 15.226562 C 58.832031 15.3125 58.660156 15.417969 58.507812 15.550781 C 58.355469 15.679688 58.21875 15.828125 58.09375 15.992188 C 57.972656 16.15625 57.863281 16.316406 57.765625 16.476562 C 57.753906 16.289062 57.734375 16.125 57.71875 15.980469 C 57.699219 15.839844 57.667969 15.71875 57.621094 15.621094 C 57.574219 15.523438 57.503906 15.449219 57.417969 15.398438 C 57.332031 15.347656 57.207031 15.320312 57.046875 15.320312 C 56.96875 15.320312 56.886719 15.335938 56.808594 15.371094 C 56.726562 15.402344 56.65625 15.449219 56.59375 15.507812 C 56.53125 15.5625 56.484375 15.636719 56.453125 15.71875 C 56.421875 15.800781 56.410156 15.898438 56.425781 16.007812 C 56.433594 16.089844 56.453125 16.183594 56.484375 16.296875 C 56.519531 16.410156 56.550781 16.558594 56.578125 16.742188 C 56.605469 16.921875 56.632812 17.144531 56.648438 17.402344 C 56.667969 17.660156 56.671875 17.976562 56.664062 18.351562 C 56.65625 18.726562 56.632812 19.167969 56.582031 19.667969 C 56.535156 20.171875 56.460938 20.753906 56.359375 21.417969 C 56.34375 21.570312 56.402344 21.695312 56.535156 21.789062 C 56.664062 21.882812 56.816406 21.9375 56.980469 21.953125 C 57.148438 21.96875 57.308594 21.9375 57.457031 21.867188 C 57.605469 21.792969 57.691406 21.664062 57.710938 21.484375 C 57.734375 21.140625 57.777344 20.777344 57.839844 20.390625 C 57.898438 20.003906 57.976562 19.621094 58.066406 19.242188 C 58.15625 18.863281 58.261719 18.503906 58.378906 18.160156 C 58.496094 17.820312 58.625 17.515625 58.765625 17.253906 C 58.90625 16.992188 59.054688 16.78125 59.207031 16.625 C 59.359375 16.46875 59.519531 16.390625 59.6875 16.390625 C 59.890625 16.390625 60.046875 16.484375 60.160156 16.667969 C 60.273438 16.855469 60.355469 17.09375 60.402344 17.386719 C 60.449219 17.675781 60.46875 17.996094 60.46875 18.339844 C 60.464844 18.6875 60.449219 19.019531 60.421875 19.339844 C 60.398438 19.664062 60.367188 19.949219 60.335938 20.199219 C 60.304688 20.449219 60.28125 20.625 60.265625 20.71875 C 60.265625 20.886719 60.328125 21.019531 60.457031 21.117188 C 60.582031 21.214844 60.726562 21.273438 60.882812 21.292969 C 61.039062 21.3125 61.183594 21.28125 61.324219 21.203125 C 61.460938 21.128906 61.542969 21 61.5625 20.816406 C 61.636719 20.292969 61.734375 19.765625 61.863281 19.238281 C 61.992188 18.710938 62.136719 18.234375 62.300781 17.816406 C 62.464844 17.398438 62.644531 17.054688 62.84375 16.789062 C 63.046875 16.523438 63.257812 16.390625 63.484375 16.390625 C 63.597656 16.390625 63.6875 16.472656 63.75 16.632812 C 63.8125 16.792969 63.84375 17.011719 63.84375 17.289062 C 63.84375 17.492188 63.828125 17.699219 63.792969 17.914062 C 63.761719 18.128906 63.722656 18.351562 63.679688 18.582031 C 63.636719 18.8125 63.597656 19.046875 63.566406 19.285156 C 63.53125 19.527344 63.515625 19.777344 63.515625 20.042969 C 63.515625 20.222656 63.535156 20.433594 63.570312 20.675781 C 63.605469 20.914062 63.675781 21.144531 63.777344 21.359375 C 63.878906 21.574219 64.019531 21.753906 64.199219 21.902344 C 64.375 22.054688 64.601562 22.128906 64.878906 22.128906 C 65.292969 22.128906 65.660156 22.039062 65.980469 21.859375 C 66.300781 21.683594 66.574219 21.449219 66.804688 21.160156 C 66.816406 21.144531 66.828125 21.128906 66.839844 21.113281 C 66.855469 21.15625 66.871094 21.203125 66.890625 21.242188 C 67.046875 21.5625 67.261719 21.8125 67.53125 21.984375 C 67.800781 22.160156 68.117188 22.257812 68.480469 22.277344 C 68.84375 22.292969 69.238281 22.226562 69.667969 22.074219 C 69.988281 21.957031 70.265625 21.8125 70.503906 21.636719 C 70.738281 21.460938 70.953125 21.25 71.140625 20.996094 C 71.328125 20.746094 71.503906 20.457031 71.660156 20.128906 C 71.816406 19.800781 71.972656 19.425781 72.132812 19.003906 C 72.164062 18.886719 72.136719 18.78125 72.050781 18.691406 C 71.96875 18.601562 71.867188 18.535156 71.746094 18.5 Z M 71.746094 18.5 "/>
<path style=" stroke:none;fill-rule:evenodd;fill:rgb(5.098039%,4.705882%,13.72549%);fill-opacity:1;" d="M 77.675781 17.28125 C 77.636719 17.496094 77.589844 17.734375 77.527344 17.992188 C 77.464844 18.25 77.386719 18.519531 77.292969 18.792969 C 77.199219 19.070312 77.082031 19.320312 76.945312 19.542969 C 76.804688 19.765625 76.648438 19.941406 76.46875 20.074219 C 76.292969 20.203125 76.085938 20.257812 75.851562 20.238281 C 75.738281 20.222656 75.648438 20.144531 75.585938 19.996094 C 75.523438 19.851562 75.492188 19.664062 75.488281 19.441406 C 75.484375 19.214844 75.503906 18.964844 75.546875 18.695312 C 75.589844 18.425781 75.660156 18.164062 75.75 17.902344 C 75.839844 17.644531 75.953125 17.40625 76.082031 17.1875 C 76.214844 16.96875 76.363281 16.800781 76.535156 16.679688 C 76.707031 16.558594 76.894531 16.503906 77.097656 16.511719 C 77.300781 16.519531 77.519531 16.621094 77.75 16.816406 C 77.738281 16.910156 77.710938 17.066406 77.675781 17.28125 Z M 81.550781 18.117188 C 81.441406 18.058594 81.324219 18.046875 81.203125 18.078125 C 81.082031 18.113281 81 18.222656 80.949219 18.414062 C 80.917969 18.617188 80.851562 18.855469 80.75 19.132812 C 80.648438 19.410156 80.523438 19.671875 80.375 19.921875 C 80.226562 20.167969 80.054688 20.375 79.863281 20.539062 C 79.667969 20.703125 79.464844 20.777344 79.246094 20.761719 C 79.0625 20.746094 78.9375 20.65625 78.863281 20.484375 C 78.789062 20.3125 78.753906 20.097656 78.75 19.839844 C 78.746094 19.578125 78.769531 19.289062 78.824219 18.964844 C 78.878906 18.640625 78.945312 18.316406 79.023438 17.996094 C 79.097656 17.675781 79.175781 17.367188 79.257812 17.074219 C 79.335938 16.777344 79.402344 16.527344 79.453125 16.324219 C 79.511719 16.144531 79.492188 15.988281 79.398438 15.859375 C 79.304688 15.734375 79.1875 15.640625 79.042969 15.585938 C 78.902344 15.53125 78.757812 15.519531 78.613281 15.542969 C 78.46875 15.570312 78.371094 15.648438 78.328125 15.777344 C 77.898438 15.40625 77.488281 15.207031 77.089844 15.175781 C 76.695312 15.148438 76.328125 15.234375 75.996094 15.441406 C 75.660156 15.644531 75.363281 15.9375 75.105469 16.324219 C 74.847656 16.710938 74.636719 17.132812 74.476562 17.585938 C 74.320312 18.042969 74.21875 18.507812 74.179688 18.980469 C 74.136719 19.453125 74.167969 19.886719 74.269531 20.277344 C 74.375 20.664062 74.554688 20.984375 74.8125 21.230469 C 75.070312 21.480469 75.421875 21.601562 75.863281 21.601562 C 76.058594 21.601562 76.25 21.5625 76.429688 21.484375 C 76.613281 21.402344 76.78125 21.308594 76.933594 21.199219 C 77.085938 21.089844 77.21875 20.976562 77.335938 20.855469 C 77.453125 20.734375 77.542969 20.632812 77.609375 20.554688 C 77.660156 20.816406 77.742188 21.039062 77.859375 21.222656 C 77.976562 21.402344 78.109375 21.550781 78.257812 21.667969 C 78.40625 21.785156 78.5625 21.871094 78.726562 21.925781 C 78.890625 21.980469 79.050781 22.007812 79.203125 22.007812 C 79.542969 22.007812 79.863281 21.890625 80.160156 21.65625 C 80.460938 21.425781 80.726562 21.140625 80.964844 20.800781 C 81.199219 20.460938 81.394531 20.105469 81.546875 19.730469 C 81.699219 19.355469 81.800781 19.019531 81.851562 18.730469 C 81.902344 18.621094 81.894531 18.503906 81.824219 18.386719 C 81.757812 18.265625 81.664062 18.175781 81.550781 18.117188 Z M 81.550781 18.117188 "/>
<path style=" stroke:none;fill-rule:evenodd;fill:rgb(5.098039%,4.705882%,13.72549%);fill-opacity:1;" d="M 101.1875 24.148438 C 101.125 24.398438 101.03125 24.609375 100.898438 24.777344 C 100.769531 24.949219 100.605469 25.039062 100.40625 25.046875 C 100.285156 25.054688 100.191406 24.988281 100.125 24.851562 C 100.058594 24.710938 100.011719 24.53125 99.988281 24.3125 C 99.960938 24.09375 99.953125 23.851562 99.957031 23.582031 C 99.960938 23.3125 99.96875 23.046875 99.988281 22.785156 C 100.007812 22.523438 100.027344 22.277344 100.054688 22.050781 C 100.078125 21.824219 100.097656 21.652344 100.113281 21.527344 C 100.359375 21.558594 100.566406 21.664062 100.730469 21.851562 C 100.894531 22.035156 101.019531 22.257812 101.105469 22.511719 C 101.195312 22.765625 101.246094 23.042969 101.257812 23.335938 C 101.273438 23.632812 101.25 23.902344 101.1875 24.148438 Z M 97.238281 24.148438 C 97.175781 24.398438 97.082031 24.609375 96.949219 24.777344 C 96.820312 24.949219 96.65625 25.039062 96.460938 25.046875 C 96.335938 25.054688 96.242188 24.988281 96.175781 24.851562 C 96.109375 24.710938 96.066406 24.53125 96.039062 24.3125 C 96.015625 24.09375 96.003906 23.851562 96.007812 23.582031 C 96.011719 23.3125 96.019531 23.046875 96.039062 22.785156 C 96.058594 22.523438 96.078125 22.277344 96.105469 22.050781 C 96.128906 21.824219 96.148438 21.652344 96.164062 21.527344 C 96.410156 21.558594 96.617188 21.664062 96.78125 21.851562 C 96.945312 22.035156 97.070312 22.257812 97.15625 22.511719 C 97.246094 22.765625 97.296875 23.042969 97.308594 23.335938 C 97.324219 23.632812 97.300781 23.902344 97.238281 24.148438 Z M 93.1875 17.941406 C 93.179688 18.117188 93.164062 18.273438 93.136719 18.40625 C 93.113281 18.542969 93.078125 18.628906 93.035156 18.664062 C 92.953125 18.621094 92.855469 18.507812 92.738281 18.324219 C 92.625 18.144531 92.53125 17.9375 92.464844 17.707031 C 92.402344 17.480469 92.382812 17.253906 92.40625 17.03125 C 92.433594 16.808594 92.546875 16.636719 92.75 16.511719 C 92.832031 16.46875 92.898438 16.484375 92.957031 16.5625 C 93.015625 16.636719 93.0625 16.75 93.101562 16.894531 C 93.136719 17.039062 93.160156 17.207031 93.175781 17.398438 C 93.191406 17.585938 93.195312 17.769531 93.1875 17.941406 Z M 92.222656 20.125 C 92.109375 20.242188 91.984375 20.347656 91.84375 20.433594 C 91.707031 20.523438 91.566406 20.585938 91.417969 20.632812 C 91.273438 20.675781 91.144531 20.6875 91.027344 20.664062 C 90.699219 20.597656 90.449219 20.457031 90.273438 20.238281 C 90.101562 20.019531 89.988281 19.761719 89.941406 19.46875 C 89.894531 19.171875 89.898438 18.855469 89.957031 18.523438 C 90.015625 18.1875 90.113281 17.875 90.253906 17.589844 C 90.390625 17.300781 90.558594 17.050781 90.753906 16.84375 C 90.949219 16.636719 91.164062 16.507812 91.398438 16.457031 C 91.308594 16.828125 91.28125 17.210938 91.308594 17.609375 C 91.339844 18.007812 91.433594 18.378906 91.59375 18.730469 C 91.695312 18.941406 91.816406 19.132812 91.960938 19.308594 C 92.101562 19.484375 92.273438 19.632812 92.476562 19.757812 C 92.417969 19.882812 92.335938 20.003906 92.222656 20.125 Z M 104.292969 18.050781 C 104.3125 17.886719 104.347656 17.707031 104.390625 17.523438 C 104.433594 17.335938 104.488281 17.15625 104.554688 16.980469 C 104.617188 16.804688 104.695312 16.65625 104.78125 16.527344 C 104.871094 16.402344 104.960938 16.308594 105.058594 16.253906 C 105.160156 16.199219 105.257812 16.207031 105.359375 16.269531 C 105.46875 16.335938 105.535156 16.476562 105.5625 16.6875 C 105.585938 16.898438 105.5625 17.125 105.484375 17.363281 C 105.410156 17.605469 105.273438 17.832031 105.078125 18.042969 C 104.878906 18.253906 104.613281 18.390625 104.28125 18.457031 C 104.265625 18.355469 104.269531 18.21875 104.292969 18.050781 Z M 108.6875 18.050781 C 108.710938 17.886719 108.742188 17.707031 108.785156 17.523438 C 108.828125 17.335938 108.882812 17.15625 108.949219 16.980469 C 109.015625 16.804688 109.089844 16.65625 109.179688 16.527344 C 109.265625 16.402344 109.359375 16.308594 109.457031 16.253906 C 109.554688 16.199219 109.65625 16.207031 109.757812 16.269531 C 109.867188 16.335938 109.933594 16.476562 109.957031 16.6875 C 109.984375 16.898438 109.957031 17.125 109.882812 17.363281 C 109.804688 17.605469 109.667969 17.832031 109.472656 18.042969 C 109.277344 18.253906 109.011719 18.390625 108.675781 18.457031 C 108.664062 18.355469 108.664062 18.21875 108.6875 18.050781 Z M 112.773438 18.691406 C 112.6875 18.601562 112.585938 18.535156 112.46875 18.5 C 112.347656 18.464844 112.234375 18.460938 112.125 18.488281 C 112.015625 18.519531 111.945312 18.59375 111.917969 18.71875 C 111.859375 18.953125 111.765625 19.191406 111.636719 19.433594 C 111.511719 19.679688 111.355469 19.910156 111.167969 20.128906 C 110.984375 20.347656 110.773438 20.539062 110.542969 20.707031 C 110.308594 20.875 110.066406 20.996094 109.8125 21.070312 C 109.554688 21.148438 109.34375 21.15625 109.179688 21.097656 C 109.011719 21.035156 108.878906 20.929688 108.78125 20.777344 C 108.683594 20.628906 108.613281 20.449219 108.566406 20.238281 C 108.523438 20.027344 108.5 19.808594 108.492188 19.582031 C 108.90625 19.613281 109.273438 19.535156 109.597656 19.359375 C 109.921875 19.179688 110.195312 18.941406 110.421875 18.648438 C 110.648438 18.351562 110.820312 18.023438 110.933594 17.652344 C 111.050781 17.285156 111.117188 16.917969 111.132812 16.554688 C 111.136719 16.210938 111.085938 15.921875 110.976562 15.6875 C 110.871094 15.449219 110.722656 15.265625 110.535156 15.132812 C 110.351562 15.003906 110.136719 14.925781 109.898438 14.90625 C 109.660156 14.882812 109.414062 14.917969 109.167969 15.003906 C 108.871094 15.105469 108.617188 15.269531 108.410156 15.5 C 108.203125 15.730469 108.03125 15.996094 107.890625 16.296875 C 107.753906 16.601562 107.644531 16.925781 107.5625 17.277344 C 107.484375 17.625 107.425781 17.96875 107.390625 18.308594 C 107.355469 18.636719 107.335938 18.953125 107.332031 19.253906 C 107.304688 19.3125 107.273438 19.375 107.242188 19.433594 C 107.113281 19.679688 106.957031 19.910156 106.773438 20.128906 C 106.589844 20.347656 106.378906 20.539062 106.144531 20.707031 C 105.914062 20.875 105.667969 20.996094 105.414062 21.070312 C 105.160156 21.148438 104.949219 21.15625 104.78125 21.097656 C 104.613281 21.035156 104.480469 20.929688 104.382812 20.777344 C 104.285156 20.628906 104.214844 20.449219 104.171875 20.238281 C 104.128906 20.027344 104.101562 19.808594 104.09375 19.582031 C 104.507812 19.613281 104.878906 19.535156 105.203125 19.359375 C 105.527344 19.179688 105.800781 18.941406 106.027344 18.648438 C 106.25 18.351562 106.421875 18.023438 106.539062 17.652344 C 106.65625 17.285156 106.71875 16.917969 106.734375 16.554688 C 106.742188 16.210938 106.691406 15.921875 106.582031 15.6875 C 106.472656 15.449219 106.324219 15.265625 106.140625 15.132812 C 105.953125 15.003906 105.742188 14.925781 105.503906 14.90625 C 105.261719 14.882812 105.019531 14.917969 104.773438 15.003906 C 104.472656 15.105469 104.21875 15.269531 104.011719 15.5 C 103.804688 15.730469 103.632812 15.996094 103.496094 16.296875 C 103.355469 16.601562 103.25 16.925781 103.167969 17.277344 C 103.089844 17.625 103.03125 17.96875 102.992188 18.308594 C 102.972656 18.5 102.960938 18.683594 102.949219 18.867188 C 102.878906 18.925781 102.808594 18.988281 102.738281 19.046875 C 102.488281 19.25 102.222656 19.433594 101.945312 19.597656 C 101.667969 19.761719 101.382812 19.898438 101.085938 20.003906 C 100.785156 20.109375 100.480469 20.171875 100.167969 20.195312 L 100.84375 12.9375 C 100.886719 12.785156 100.867188 12.652344 100.777344 12.535156 C 100.691406 12.417969 100.578125 12.335938 100.441406 12.292969 C 100.304688 12.25 100.15625 12.253906 100 12.304688 C 99.84375 12.355469 99.714844 12.472656 99.613281 12.652344 C 99.5625 12.929688 99.507812 13.308594 99.453125 13.789062 C 99.398438 14.269531 99.34375 14.796875 99.289062 15.363281 C 99.234375 15.933594 99.179688 16.519531 99.125 17.125 C 99.070312 17.726562 99.023438 18.292969 98.984375 18.816406 C 98.984375 18.839844 98.980469 18.863281 98.980469 18.882812 C 98.914062 18.9375 98.855469 18.992188 98.789062 19.046875 C 98.539062 19.25 98.273438 19.433594 97.996094 19.597656 C 97.722656 19.761719 97.433594 19.898438 97.136719 20.003906 C 96.835938 20.109375 96.53125 20.171875 96.21875 20.195312 L 96.894531 12.9375 C 96.9375 12.785156 96.917969 12.652344 96.832031 12.535156 C 96.742188 12.417969 96.628906 12.335938 96.492188 12.292969 C 96.355469 12.25 96.207031 12.253906 96.050781 12.304688 C 95.894531 12.355469 95.765625 12.472656 95.664062 12.652344 C 95.613281 12.929688 95.558594 13.308594 95.503906 13.789062 C 95.449219 14.269531 95.394531 14.796875 95.339844 15.363281 C 95.285156 15.933594 95.230469 16.519531 95.175781 17.125 C 95.125 17.726562 95.074219 18.292969 95.035156 18.816406 C 95.035156 18.828125 95.035156 18.835938 95.035156 18.847656 C 94.917969 18.902344 94.792969 18.949219 94.660156 18.988281 C 94.519531 19.027344 94.363281 19.050781 94.191406 19.058594 C 94.21875 18.925781 94.242188 18.78125 94.261719 18.621094 C 94.28125 18.460938 94.292969 18.292969 94.304688 18.117188 C 94.316406 17.941406 94.320312 17.769531 94.316406 17.59375 C 94.3125 17.417969 94.304688 17.257812 94.289062 17.113281 C 94.253906 16.800781 94.183594 16.503906 94.085938 16.222656 C 93.988281 15.941406 93.855469 15.707031 93.6875 15.515625 C 93.519531 15.328125 93.3125 15.199219 93.0625 15.132812 C 92.808594 15.070312 92.519531 15.089844 92.183594 15.199219 C 91.6875 15.132812 91.242188 15.179688 90.847656 15.335938 C 90.449219 15.492188 90.105469 15.722656 89.816406 16.019531 C 89.523438 16.320312 89.285156 16.671875 89.101562 17.074219 C 88.917969 17.480469 88.792969 17.894531 88.730469 18.320312 C 88.703125 18.5 88.691406 18.679688 88.6875 18.859375 C 88.574219 19.089844 88.453125 19.292969 88.316406 19.460938 C 88.125 19.703125 87.921875 19.898438 87.714844 20.050781 C 87.507812 20.207031 87.304688 20.320312 87.101562 20.402344 C 86.894531 20.480469 86.714844 20.535156 86.554688 20.566406 C 86.367188 20.601562 86.183594 20.605469 86.007812 20.578125 C 85.835938 20.546875 85.675781 20.464844 85.527344 20.324219 C 85.414062 20.222656 85.324219 20.058594 85.261719 19.832031 C 85.199219 19.609375 85.164062 19.351562 85.152344 19.0625 C 85.140625 18.777344 85.152344 18.476562 85.183594 18.160156 C 85.21875 17.847656 85.273438 17.550781 85.355469 17.269531 C 85.433594 16.992188 85.535156 16.738281 85.660156 16.515625 C 85.785156 16.296875 85.929688 16.136719 86.097656 16.042969 C 86.191406 16.054688 86.25 16.113281 86.269531 16.210938 C 86.292969 16.308594 86.296875 16.425781 86.289062 16.5625 C 86.277344 16.695312 86.261719 16.832031 86.238281 16.976562 C 86.214844 17.117188 86.207031 17.238281 86.207031 17.332031 C 86.242188 17.527344 86.3125 17.679688 86.417969 17.789062 C 86.523438 17.898438 86.640625 17.964844 86.773438 17.980469 C 86.902344 18 87.03125 17.96875 87.160156 17.886719 C 87.289062 17.808594 87.390625 17.679688 87.472656 17.507812 C 87.476562 17.511719 87.488281 17.515625 87.503906 17.515625 L 87.65625 16.128906 C 87.699219 15.941406 87.671875 15.773438 87.570312 15.625 C 87.46875 15.480469 87.332031 15.398438 87.164062 15.375 C 86.953125 15.070312 86.667969 14.90625 86.308594 14.890625 C 85.949219 14.871094 85.578125 14.988281 85.203125 15.242188 C 84.96875 15.410156 84.761719 15.644531 84.585938 15.9375 C 84.40625 16.234375 84.261719 16.5625 84.148438 16.921875 C 84.035156 17.28125 83.957031 17.664062 83.910156 18.0625 C 83.863281 18.464844 83.851562 18.855469 83.882812 19.234375 C 83.910156 19.613281 83.976562 19.96875 84.082031 20.304688 C 84.1875 20.640625 84.335938 20.917969 84.527344 21.144531 C 84.6875 21.339844 84.867188 21.484375 85.070312 21.578125 C 85.273438 21.667969 85.488281 21.722656 85.710938 21.746094 C 85.929688 21.769531 86.152344 21.757812 86.367188 21.71875 C 86.585938 21.679688 86.792969 21.621094 86.992188 21.550781 C 87.246094 21.453125 87.507812 21.335938 87.777344 21.1875 C 88.046875 21.042969 88.304688 20.867188 88.550781 20.664062 C 88.679688 20.558594 88.804688 20.441406 88.925781 20.3125 C 88.980469 20.453125 89.042969 20.582031 89.117188 20.707031 C 89.3125 21.035156 89.578125 21.300781 89.914062 21.503906 C 90.25 21.710938 90.660156 21.808594 91.148438 21.800781 C 91.671875 21.792969 92.152344 21.660156 92.597656 21.402344 C 93.042969 21.144531 93.40625 20.761719 93.6875 20.261719 C 94.113281 20.261719 94.53125 20.191406 94.941406 20.050781 C 94.9375 20.09375 94.933594 20.140625 94.933594 20.183594 C 94.902344 20.570312 94.886719 20.832031 94.886719 20.96875 C 94.882812 21.210938 94.863281 21.507812 94.839844 21.859375 C 94.8125 22.214844 94.796875 22.585938 94.789062 22.976562 C 94.785156 23.363281 94.796875 23.757812 94.835938 24.15625 C 94.871094 24.550781 94.945312 24.914062 95.0625 25.238281 C 95.179688 25.5625 95.34375 25.835938 95.558594 26.0625 C 95.773438 26.289062 96.054688 26.421875 96.40625 26.46875 C 96.777344 26.519531 97.09375 26.453125 97.363281 26.269531 C 97.632812 26.089844 97.851562 25.839844 98.019531 25.523438 C 98.1875 25.203125 98.304688 24.839844 98.375 24.421875 C 98.441406 24.007812 98.460938 23.589844 98.433594 23.171875 C 98.40625 22.753906 98.328125 22.359375 98.203125 21.988281 C 98.082031 21.613281 97.910156 21.308594 97.691406 21.070312 C 97.824219 21.03125 97.980469 20.964844 98.160156 20.859375 C 98.34375 20.757812 98.53125 20.644531 98.722656 20.515625 C 98.769531 20.484375 98.816406 20.453125 98.863281 20.421875 C 98.847656 20.679688 98.835938 20.863281 98.835938 20.96875 C 98.832031 21.210938 98.8125 21.507812 98.789062 21.859375 C 98.761719 22.214844 98.746094 22.585938 98.738281 22.976562 C 98.730469 23.363281 98.746094 23.757812 98.78125 24.15625 C 98.820312 24.550781 98.894531 24.914062 99.011719 25.238281 C 99.128906 25.5625 99.292969 25.835938 99.507812 26.0625 C 99.722656 26.289062 100.003906 26.421875 100.355469 26.46875 C 100.722656 26.519531 101.042969 26.453125 101.3125 26.269531 C 101.582031 26.089844 101.800781 25.839844 101.96875 25.523438 C 102.136719 25.203125 102.253906 24.839844 102.324219 24.421875 C 102.390625 24.007812 102.410156 23.589844 102.382812 23.171875 C 102.351562 22.753906 102.277344 22.359375 102.152344 21.988281 C 102.03125 21.613281 101.859375 21.308594 101.640625 21.070312 C 101.773438 21.03125 101.929688 20.964844 102.109375 20.859375 C 102.292969 20.757812 102.480469 20.644531 102.671875 20.515625 C 102.773438 20.449219 102.871094 20.382812 102.972656 20.3125 C 103.007812 20.667969 103.089844 20.980469 103.21875 21.242188 C 103.375 21.5625 103.585938 21.8125 103.855469 21.988281 C 104.125 22.160156 104.441406 22.257812 104.804688 22.277344 C 105.167969 22.292969 105.5625 22.226562 105.992188 22.074219 C 106.3125 21.957031 106.589844 21.8125 106.828125 21.636719 C 107.0625 21.460938 107.277344 21.25 107.464844 20.996094 C 107.476562 20.984375 107.488281 20.96875 107.496094 20.953125 C 107.53125 21.054688 107.570312 21.152344 107.613281 21.242188 C 107.769531 21.5625 107.980469 21.8125 108.25 21.988281 C 108.519531 22.160156 108.835938 22.257812 109.199219 22.277344 C 109.5625 22.292969 109.960938 22.226562 110.390625 22.074219 C 110.710938 21.957031 110.988281 21.8125 111.222656 21.636719 C 111.460938 21.460938 111.671875 21.25 111.863281 20.996094 C 112.050781 20.746094 112.222656 20.457031 112.378906 20.128906 C 112.535156 19.800781 112.695312 19.425781 112.855469 19.003906 C 112.882812 18.886719 112.855469 18.78125 112.773438 18.691406 Z M 112.773438 18.691406 "/>
</g>
</svg>
