<?xml version="1.0" encoding="UTF-8"?>
<svg xmlns="http://www.w3.org/2000/svg" xmlns:xlink="http://www.w3.org/1999/xlink" width="36px" height="35px" viewBox="0 0 35 35" version="1.1">
<g id="surface1">
<path style=" stroke:none;fill-rule:evenodd;fill:rgb(100%,100%,100%);fill-opacity:1;" d="M 17.449219 0 C 7.800781 0 0 8.019531 0 17.945312 C 0 25.875 4.996094 32.589844 11.929688 34.964844 C 12.796875 35.144531 13.113281 34.578125 13.113281 34.105469 C 13.113281 33.6875 13.085938 32.261719 13.085938 30.777344 C 8.234375 31.847656 7.222656 28.636719 7.222656 28.636719 C 6.441406 26.558594 5.285156 26.023438 5.285156 26.023438 C 3.699219 24.925781 5.402344 24.925781 5.402344 24.925781 C 7.164062 25.042969 8.089844 26.765625 8.089844 26.765625 C 9.648438 29.5 12.160156 28.726562 13.171875 28.253906 C 13.316406 27.09375 13.777344 26.292969 14.269531 25.847656 C 10.398438 25.429688 6.328125 23.886719 6.328125 16.992188 C 6.328125 15.03125 7.019531 13.429688 8.117188 12.179688 C 7.945312 11.734375 7.335938 9.894531 8.289062 7.425781 C 8.289062 7.425781 9.765625 6.953125 13.085938 9.269531 C 14.507812 8.875 15.972656 8.675781 17.449219 8.675781 C 18.921875 8.675781 20.421875 8.882812 21.808594 9.269531 C 25.132812 6.953125 26.605469 7.425781 26.605469 7.425781 C 27.558594 9.894531 26.953125 11.734375 26.777344 12.179688 C 27.90625 13.429688 28.570312 15.03125 28.570312 16.992188 C 28.570312 23.886719 24.496094 25.398438 20.597656 25.847656 C 21.230469 26.410156 21.78125 27.480469 21.78125 29.171875 C 21.78125 31.578125 21.753906 33.511719 21.753906 34.105469 C 21.753906 34.578125 22.070312 35.144531 22.9375 34.964844 C 29.871094 32.589844 34.867188 25.875 34.867188 17.945312 C 34.894531 8.019531 27.066406 0 17.449219 0 Z M 17.449219 0 "/>
</g>
</svg>
