<?xml version="1.0" encoding="UTF-8"?>
<svg xmlns="http://www.w3.org/2000/svg" xmlns:xlink="http://www.w3.org/1999/xlink" width="50px" height="57px" viewBox="0 0 50 57" version="1.1">
<g id="surface1">
<path style=" stroke:none;fill-rule:nonzero;fill:rgb(62.352941%,93.72549%,0%);fill-opacity:1;" d="M 50 15.492188 C 50 14.945312 49.816406 14.394531 49.445312 14.027344 C 49.445312 14.027344 49.445312 14.027344 49.261719 13.84375 C 49.261719 13.84375 49.078125 13.84375 49.078125 13.660156 L 26.015625 0.65625 C 26.015625 0.65625 25.832031 0.65625 25.832031 0.65625 C 25.644531 0.289062 25.277344 0.289062 24.90625 0.289062 C 24.722656 0.289062 24.539062 0.289062 24.355469 0.472656 C 24.167969 0.472656 24.167969 0.65625 23.984375 0.65625 L 1.105469 13.660156 C 0.738281 13.84375 0.554688 14.027344 0.554688 14.027344 C 0.183594 14.394531 0 14.945312 0 15.492188 L 0 41.691406 C 0 42.421875 0.367188 43.15625 1.105469 43.523438 L 23.984375 56.527344 C 23.984375 56.527344 23.984375 56.527344 24.167969 56.527344 C 24.355469 56.527344 24.355469 56.710938 24.539062 56.710938 C 24.722656 56.710938 24.90625 56.710938 24.90625 56.710938 C 25.09375 56.710938 25.277344 56.710938 25.277344 56.710938 C 25.460938 56.710938 25.460938 56.710938 25.644531 56.527344 C 25.644531 56.527344 25.644531 56.527344 25.832031 56.527344 L 48.707031 43.523438 C 49.445312 43.15625 49.816406 42.421875 49.816406 41.691406 Z M 9.039062 14.578125 L 24.539062 5.785156 C 24.90625 5.601562 25.277344 5.601562 25.460938 5.785156 L 40.960938 14.761719 C 41.699219 14.945312 41.699219 16.042969 40.960938 16.410156 L 25.460938 25.386719 C 25.09375 25.570312 24.722656 25.570312 24.539062 25.386719 L 9.039062 16.410156 C 8.300781 16.042969 8.300781 14.945312 9.039062 14.578125 Z M 22.324219 48.46875 C 22.324219 49.199219 21.585938 49.75 20.847656 49.382812 L 5.351562 40.40625 C 4.980469 40.222656 4.796875 39.859375 4.796875 39.675781 L 4.796875 21.90625 C 4.796875 21.171875 5.535156 20.621094 6.273438 20.988281 L 21.769531 29.964844 C 22.140625 30.148438 22.324219 30.515625 22.324219 30.882812 Z M 45.203125 39.675781 C 45.203125 40.042969 45.019531 40.40625 44.648438 40.589844 L 29.152344 49.566406 C 28.414062 49.933594 27.675781 49.382812 27.675781 48.652344 L 27.675781 30.882812 C 27.675781 30.515625 27.859375 30.148438 28.230469 29.964844 L 43.726562 20.988281 C 44.464844 20.621094 45.203125 21.171875 45.203125 21.90625 Z M 45.203125 39.675781 "/>
</g>
</svg>
