<svg width="143" height="29" viewBox="0 0 143 29" fill="none" xmlns="http://www.w3.org/2000/svg">
<path fill-rule="evenodd" clip-rule="evenodd" d="M0 20.121C0 14.456 4.72972 12.8374 7.2973 12.8374C7.52253 9.78004 10.5405 3.27833 17.4324 2.18169C24.8919 0.994726 29.1442 5.91343 30.5407 8.52114C33.919 8.52114 40 10.949 40 18.3676C40 24.5721 34.3242 26.6403 31.4863 27H5.81081C3.78379 26.8652 0 24.3024 0 20.121ZM30.6758 14.6121C30.6758 20.7206 25.7143 25.6725 19.5946 25.6725C13.4747 25.6725 8.51347 20.7206 8.51347 14.6121C8.51347 8.50365 13.4747 3.55175 19.5946 3.55175C25.7143 3.55175 30.6758 8.50365 30.6758 14.6121ZM18.3786 10.4805L14.2391 14.6123L18.3786 18.7441L17.3437 19.777L12.1693 14.6123L17.3437 9.44757L18.3786 10.4805ZM20.8104 10.4805L24.9499 14.6123L20.8104 18.7441L21.8453 19.777L27.0195 14.6123L21.8453 9.44757L20.8104 10.4805Z" fill="url(#paint0_linear_519_30138)"/>
<path fill-rule="evenodd" clip-rule="evenodd" d="M81.3863 4.64948C82.2224 4.64948 82.9657 4.80447 83.6161 5.11442V10.6508C82.9657 10.8746 82.2224 10.9866 81.3863 10.9866C79.5451 10.9866 78.6247 9.84143 78.6247 7.55112C78.6247 5.61668 79.5451 4.64948 81.3863 4.64948ZM81.1249 12.3125C82.7509 12.3125 84.1185 12.1317 85.2279 11.7701V0H83.6161V3.70238C82.9135 3.41537 82.1672 3.27185 81.3774 3.27185C78.4852 3.27185 77.0393 4.71837 77.0393 7.61138C77.0393 10.7455 78.4013 12.3125 81.1249 12.3125ZM56.6115 2.22475e-05V12.3126H55V2.22475e-05H56.6115ZM65.3748 2.22475e-05L59.765 5.81188L65.4968 12.3126H63.258L58.1797 6.38877V5.42443L63.3367 2.22475e-05H65.3748ZM68.1974 7.75775C68.1974 9.93324 69.1122 11.021 70.9415 11.021C72.7708 11.021 73.6856 9.93324 73.6856 7.75775C73.6856 5.62817 72.7708 4.56336 70.9415 4.56336C69.1122 4.56336 68.1974 5.62817 68.1974 7.75775ZM66.5859 7.79219C66.5859 4.77861 68.0378 3.27183 70.9415 3.27183C73.8452 3.27183 75.2971 4.77861 75.2971 7.79219C75.2971 10.8 73.8452 12.3039 70.9415 12.3039C68.0494 12.3039 66.5975 10.8 66.5859 7.79219ZM91.613 3.27183C94.2146 3.27183 95.5154 4.54328 95.5154 7.08616C95.5154 7.44776 95.4893 7.83524 95.4371 8.2485H89.017C89.017 10.0968 90.1089 11.021 92.2925 11.021C93.3319 11.021 94.2553 10.9062 95.0627 10.6766V11.9681C94.2553 12.1977 93.274 12.3125 92.1183 12.3125C88.9763 12.3125 87.4055 10.7713 87.4055 7.68885C87.4055 4.74419 88.8081 3.27183 91.613 3.27183ZM89.017 6.92256H93.9651C93.9301 5.33829 93.1461 4.54615 91.613 4.54615C89.9869 4.54615 89.1217 5.33829 89.017 6.92256ZM99.4704 12.3125V0H97.8589V12.3125H99.4704ZM102.624 5.81186L108.234 0H106.195L101.038 5.42441V6.38874L106.117 12.3125H108.356L102.624 5.81186ZM111.579 0V12.3125H109.967V0H111.579ZM118.208 11.021C116.379 11.021 115.464 9.93324 115.464 7.75775C115.464 5.62817 116.379 4.56336 118.208 4.56336C120.037 4.56336 120.952 5.62817 120.952 7.75775C120.952 9.93324 120.037 11.021 118.208 11.021ZM118.208 3.27183C115.304 3.27183 113.853 4.77861 113.853 7.79219C113.864 10.8 115.316 12.3039 118.208 12.3039C121.112 12.3039 122.564 10.8 122.564 7.79219C122.564 4.77861 121.112 3.27183 118.208 3.27183ZM132.625 3.27183V12.3125H131.518L131.24 11.1587C130.131 11.9279 129.016 12.3125 127.895 12.3125C125.792 12.3125 124.741 11.1903 124.741 8.94593V3.27183H126.353V8.97178C126.353 10.315 127.026 10.9865 128.374 10.9865C129.297 10.9865 130.177 10.6048 131.013 9.84141V3.27183H132.625ZM139.158 4.64948C139.995 4.64948 140.738 4.80447 141.389 5.11442V10.6508C140.738 10.8746 139.995 10.9866 139.158 10.9866C137.318 10.9866 136.397 9.84143 136.397 7.55112C136.397 5.61668 137.318 4.64948 139.158 4.64948ZM138.897 12.3125C140.523 12.3125 141.891 12.1317 143 11.7701V0H141.389V3.70238C140.686 3.41537 139.94 3.27185 139.15 3.27185C136.258 3.27185 134.812 4.71837 134.812 7.61138C134.812 10.7455 136.173 12.3125 138.897 12.3125Z" fill="white"/>
<path d="M61.0129 18V18.9116H56.1897V21.8287H60.7878V22.7403H56.1897V25.779H61.1093V26.6906H55V18H61.0129Z" fill="white"/>
<path d="M62.7814 26.6906V20.3094H63.5852L63.7974 21.1238C64.4877 20.5808 65.2465 20.3094 66.074 20.3094C67.7588 20.3094 68.6013 21.1015 68.6013 22.6856V26.6906H67.4116V22.6674C67.4116 21.7193 66.9121 21.2453 65.9132 21.2453C65.2315 21.2453 64.5841 21.5147 63.9711 22.0536V26.6906H62.7814Z" fill="white"/>
<path d="M75.0514 21.3912C74.6442 21.2939 74.1404 21.2453 73.5402 21.2453C72.104 21.2453 71.3859 21.9807 71.3859 23.4514C71.3859 24.9626 72.0654 25.7182 73.4244 25.7182C74.0418 25.7182 74.5841 25.6088 75.0514 25.3901V21.3912ZM76.2412 26.6906C76.2412 28.2302 75.2058 29 73.135 29C72.3033 29 71.5659 28.8987 70.9228 28.6961V27.7845C71.5788 27.9871 72.3205 28.0884 73.1479 28.0884C74.4169 28.0884 75.0514 27.6225 75.0514 26.6906V26.3867C74.5456 26.5893 74.0011 26.6906 73.418 26.6906C71.283 26.6906 70.2154 25.6149 70.2154 23.4635C70.2154 21.3608 71.3408 20.3094 73.5916 20.3094C74.5048 20.3094 75.388 20.3965 76.2412 20.5707V26.6906Z" fill="white"/>
<path d="M79.4952 20.3094V26.6906H78.3055V20.3094H79.4952ZM79.4952 18V19.0635H78.3055V18H79.4952Z" fill="white"/>
<path d="M81.5595 26.6906V20.3094H82.3633L82.5756 21.1238C83.2658 20.5808 84.0247 20.3094 84.8521 20.3094C86.537 20.3094 87.3794 21.1015 87.3794 22.6856V26.6906H86.1897V22.6674C86.1897 21.7193 85.6902 21.2453 84.6913 21.2453C84.0096 21.2453 83.3623 21.5147 82.7492 22.0536V26.6906H81.5595Z" fill="white"/>
<path d="M92.0997 20.3094C94.0204 20.3094 94.9807 21.2068 94.9807 23.0017C94.9807 23.2569 94.9614 23.5304 94.9228 23.8221H90.1833C90.1833 25.1267 90.9893 25.779 92.6013 25.779C93.3687 25.779 94.0504 25.698 94.6463 25.5359V26.4475C94.0504 26.6096 93.3258 26.6906 92.4727 26.6906C90.1533 26.6906 88.9936 25.6028 88.9936 23.4271C88.9936 21.3486 90.0289 20.3094 92.0997 20.3094ZM90.1833 22.8862H93.836C93.8103 21.768 93.2315 21.2088 92.0997 21.2088C90.8993 21.2088 90.2604 21.768 90.1833 22.8862Z" fill="white"/>
<path d="M99.3666 20.3094C101.287 20.3094 102.248 21.2068 102.248 23.0017C102.248 23.2569 102.228 23.5304 102.19 23.8221H97.4502C97.4502 25.1267 98.2562 25.779 99.8682 25.779C100.636 25.779 101.317 25.698 101.913 25.5359V26.4475C101.317 26.6096 100.593 26.6906 99.7395 26.6906C97.4202 26.6906 96.2604 25.6028 96.2604 23.4271C96.2604 21.3486 97.2958 20.3094 99.3666 20.3094ZM97.4502 22.8862H101.103C101.077 21.768 100.498 21.2088 99.3666 21.2088C98.1661 21.2088 97.5273 21.768 97.4502 22.8862Z" fill="white"/>
<path d="M103.849 26.6906V20.3094H104.653L104.865 21.1238C105.457 20.5808 106.168 20.3094 107 20.3094V21.2453C106.194 21.2453 105.54 21.5147 105.039 22.0536V26.6906H103.849Z" fill="white"/>
<defs>
<linearGradient id="paint0_linear_519_30138" x1="40" y1="2" x2="7.02625" y2="34.196" gradientUnits="userSpaceOnUse">
<stop stop-color="#A5FECB"/>
<stop offset="0.483932" stop-color="#12D8FA"/>
<stop offset="1" stop-color="#1FA2FF"/>
</linearGradient>
</defs>
</svg>
