<?xml version="1.0" encoding="UTF-8" standalone="no"?>
<svg
   width="152.218"
   height="35.196701"
   viewBox="0 0 152.218 35.196701"
   fill="none"
   version="1.1"
   id="svg6"
   sodipodi:docname="logo_pikvm_black.svg"
   inkscape:version="1.4.1 (93de688d07, 2025-03-30)"
   xmlns:inkscape="http://www.inkscape.org/namespaces/inkscape"
   xmlns:sodipodi="http://sodipodi.sourceforge.net/DTD/sodipodi-0.dtd"
   xmlns="http://www.w3.org/2000/svg"
   xmlns:svg="http://www.w3.org/2000/svg">
  <defs
     id="defs6" />
  <sodipodi:namedview
     id="namedview6"
     pagecolor="#ffffff"
     bordercolor="#000000"
     borderopacity="0.25"
     inkscape:showpageshadow="2"
     inkscape:pageopacity="0.0"
     inkscape:pagecheckerboard="0"
     inkscape:deskcolor="#d1d1d1"
     inkscape:zoom="5.2053521"
     inkscape:cx="72.617566"
     inkscape:cy="20.651821"
     inkscape:window-width="1707"
     inkscape:window-height="999"
     inkscape:window-x="0"
     inkscape:window-y="0"
     inkscape:window-maximized="1"
     inkscape:current-layer="svg6" />
  <g
     id="g6">
    <path
       d="M 79.1478,33.4572 65.4039,16.2675 76.9967,1.74146 C 77.2585,1.41339 77.3165,0.993145 77.1367,0.61245 76.9568,0.231755 76.5959,0.00319004 76.1759,0.00319004 H 68.712 c -0.3299,0 -0.6187,0.13246196 -0.8233,0.39068796 L 66.0899,2.66466 56.0283,15.3667 V 1.06395 c 0,-0.585556 -0.4776,-1.063311515 -1.063,-1.063311515 h -6.6831 c -0.5853,0 -1.063,0.477755515 -1.063,1.063311515 V 34.1334 c 0,0.5855 0.4777,1.0632 1.063,1.0632 h 6.6831 c 0.5854,0 1.063,-0.4777 1.063,-1.0632 V 18.6552 l 9.8408,12.4229 2.9521,3.7267 c 0.2046,0.2583 0.4935,0.3906 0.8233,0.3906 h 8.6825 c 0.4198,0 0.7809,-0.2285 0.9607,-0.6092 0.1799,-0.3807 0.1226,-0.8008 -0.1399,-1.129 z"
       fill="white"
       id="path1"
       style="fill:#000000;fill-opacity:1" />
    <path
       d="m 83.3131,6.58547 -2.3146,-2.913 C 80.7898,3.41084 80.4959,3.2702 80.1589,3.272 79.8218,3.27381 79.5328,3.41754 79.3265,3.68534 l -4.1538,5.38395 c -0.303,0.39249 -0.2976,0.92628 0.0109,1.31331 l 19.1661,24.0386 c 0.2063,0.2588 0.4934,0.3975 0.825,0.3993 0.3316,0.0018 0.62,-0.1345 0.8287,-0.3902 L 113.99,12.4101 c 0.158,-0.1943 0.239,-0.4139 0.239,-0.6653 L 114.225,1.12603 c 0,-0.457128 -0.271,-0.85207 -0.702,-1.00792 -0.431,-0.15585 -0.893,-0.0285969 -1.183,0.326797 L 107.801,5.99385 95.1419,21.472 Z"
       fill="white"
       id="path2"
       style="fill:#000000;fill-opacity:1" />
    <path
       d="m 33.0758,13.2007 v 20.9329 c 0,0.5856 0.4774,1.0631 1.0628,1.0631 h 6.6836 c 0.5854,0 1.0629,-0.4778 1.0627,-1.0635 V 13.2013 c 4e-4,-0.5857 -0.4772,-1.0637 -1.0627,-1.0637 h -6.6836 c -0.5854,0 -1.0628,0.4775 -1.0628,1.0631 z"
       fill="white"
       id="path3"
       style="fill:#000000;fill-opacity:1" />
    <path
       d="M 40.8213,0 H 34.139 c -0.5854,0 -1.0627,0.477543 -1.0627,1.0631 v 6.6855 c 0,0.58566 0.4775,1.06321 1.0629,1.0631 h 6.6819 c 0.5855,1.1e-4 1.063,-0.47744 1.063,-1.0631 V 1.0631 C 41.8841,0.477543 41.4067,0 40.8213,0 Z"
       fill="white"
       id="path4"
       style="fill:#000000;fill-opacity:1" />
    <path
       d="M 117.558,1.06395 V 34.1334 c 0,0.5855 0.478,1.0632 1.063,1.0632 h 6.58 c 0.585,0 1.063,-0.4777 1.063,-1.0632 V 13.4161 l 7.796,9.6875 c 0.209,0.2593 0.495,0.3964 0.828,0.3964 0.333,0 0.619,-0.1371 0.828,-0.3964 l 7.797,-9.6875 v 20.7173 c 0,0.5855 0.477,1.0632 1.062,1.0632 h 6.58 c 0.586,0 1.063,-0.4777 1.063,-1.0632 V 1.06395 c 0,-0.585556 -0.477,-1.063311515 -1.063,-1.063311515 h -6.194 c -0.335,0 -0.623,0.138733515 -0.831,0.400467515 L 134.888,12.0006 125.647,0.401106 C 125.439,0.139372 125.15,6.38485e-4 124.816,6.38485e-4 h -6.195 c -0.585,0 -1.063,0.477755515 -1.063,1.063311515 z"
       fill="white"
       id="path5"
       style="fill:#000000;fill-opacity:1" />
    <path
       fill-rule="evenodd"
       clip-rule="evenodd"
       d="m 8.86034,23.4731 v 10.6602 c 0,0.5856 -0.4774,1.0631 -1.06277,1.0631 H 1.06277 C 0.477398,35.1964 0,34.7189 0,34.1333 V 1.0632 C 0,0.47765 0.477398,1.06335e-4 1.06277,1.06335e-4 c 3.95924,0 8.16236,3.22729e-4 12.35293,6.44497e-4 3.7858,2.90688e-4 7.5614,5.80588e-4 11.1376,6.31038e-4 1.756,0 3.1883,1.43273813 3.1883,3.18929813 V 20.2811 c 0,1.7567 -1.4324,3.1893 -3.1885,3.1893 h -1.3138 -0.0016 c -4.6324,0 -9.8706,0 -14.37736,0.0027 z M 18.9324,6.54709 V 16.6223 H 8.86034 V 6.54709 Z"
       fill="white"
       id="path6"
       style="fill:#000000;fill-opacity:1" />
  </g>
</svg>
