<?xml version="1.0" encoding="UTF-8"?>
<svg xmlns="http://www.w3.org/2000/svg" xmlns:xlink="http://www.w3.org/1999/xlink" width="65px" height="65px" viewBox="0 0 65 65" version="1.1">
<g id="surface1">
<path style=" stroke:none;fill-rule:nonzero;fill:rgb(41.176471%,70.980392%,24.705882%);fill-opacity:1;" d="M 62.460938 32.5 C 62.460938 49.046875 49.046875 62.460938 32.5 62.460938 C 15.953125 62.460938 2.539062 49.046875 2.539062 32.5 C 2.539062 15.953125 15.953125 2.539062 32.5 2.539062 C 49.046875 2.539062 62.460938 15.953125 62.460938 32.5 Z M 62.460938 32.5 "/>
<path style=" stroke:none;fill-rule:nonzero;fill:rgb(100%,100%,100%);fill-opacity:1;" d="M 32.5 0 C 14.550781 0 0 14.550781 0 32.5 C 0 50.449219 14.550781 65 32.5 65 C 50.449219 65 65 50.449219 65 32.5 C 65 14.550781 50.449219 0 32.5 0 Z M 32.5 5.078125 C 47.644531 5.078125 59.921875 17.355469 59.921875 32.5 C 59.921875 47.644531 47.644531 59.921875 32.5 59.921875 C 17.355469 59.921875 5.078125 47.644531 5.078125 32.5 C 5.078125 17.355469 17.355469 5.078125 32.5 5.078125 Z M 32.5 5.078125 "/>
<path style=" stroke:none;fill-rule:nonzero;fill:rgb(97.254902%,97.254902%,97.254902%);fill-opacity:1;" d="M 19.933594 15.871094 L 19.933594 38.847656 C 19.933594 41.582031 22.070312 43.753906 24.792969 43.796875 L 24.882812 43.800781 L 40.117188 43.800781 C 42.851562 43.800781 45.023438 41.660156 45.066406 38.9375 L 45.070312 38.847656 L 45.070312 26.152344 C 45.070312 24.789062 44.019531 23.742188 42.65625 23.742188 C 41.316406 23.742188 40.28125 24.753906 40.246094 26.082031 L 40.246094 38.976562 L 34.914062 38.976562 L 34.914062 26.152344 C 34.914062 24.789062 33.863281 23.742188 32.5 23.742188 C 31.160156 23.742188 30.125 24.753906 30.089844 26.082031 L 30.089844 38.976562 L 24.757812 38.976562 L 24.757812 26.152344 C 24.757812 21.90625 28.253906 18.410156 32.5 18.410156 C 34.285156 18.410156 35.988281 19.046875 37.371094 20.183594 L 37.46875 20.269531 L 37.578125 20.363281 L 37.6875 20.265625 C 39.019531 19.132812 40.660156 18.472656 42.394531 18.414062 L 42.527344 18.410156 L 42.65625 18.410156 C 46.859375 18.410156 50.332031 21.835938 50.398438 26.023438 L 50.402344 26.152344 L 50.402344 38.847656 C 50.402344 44.441406 45.859375 49.039062 40.285156 49.128906 L 40.117188 49.132812 L 24.882812 49.132812 C 19.289062 49.132812 14.691406 44.589844 14.601562 39.015625 L 14.601562 15.871094 Z M 19.933594 15.871094 "/>
</g>
</svg>
