<?xml version="1.0" encoding="UTF-8"?>
<svg xmlns="http://www.w3.org/2000/svg" xmlns:xlink="http://www.w3.org/1999/xlink" width="28px" height="35px" viewBox="0 0 28 35" version="1.1">
<defs>
<radialGradient id="radial0" gradientUnits="userSpaceOnUse" cx="0" cy="0" fx="0" fy="0" r="1" gradientTransform="matrix(35.568771,0,0,35.076867,28.074217,-4.784866)">
<stop offset="0" style="stop-color:rgb(66.27451%,58.431373%,100%);stop-opacity:1;"/>
<stop offset="1" style="stop-color:rgb(40%,32.156863%,96.078431%);stop-opacity:1;"/>
</radialGradient>
<linearGradient id="linear0" gradientUnits="userSpaceOnUse" x1="86.342" y1="599.269" x2="86.342" y2="358.469" gradientTransform="matrix(0.0562249,0,0,0.0553797,0,0)">
<stop offset="0" style="stop-color:rgb(42.745098%,29.411765%,99.215686%);stop-opacity:1;"/>
<stop offset="1" style="stop-color:rgb(10.980392%,1.960784%,32.941176%);stop-opacity:1;"/>
</linearGradient>
</defs>
<g id="surface1">
<path style=" stroke:none;fill-rule:nonzero;fill:url(#radial0);" d="M 0.0117188 25.828125 L 0.0117188 34.902344 L 6.46875 34.902344 L 6.46875 26.222656 C 6.46875 25.375 6.808594 24.566406 7.417969 23.96875 C 8.023438 23.371094 8.84375 23.035156 9.699219 23.035156 L 16.324219 23.035156 C 19.414062 23.035156 22.375 21.824219 24.558594 19.667969 C 26.746094 17.515625 27.972656 14.59375 27.972656 11.546875 C 27.972656 8.496094 26.746094 5.574219 24.558594 3.421875 C 22.375 1.265625 19.410156 0.0546875 16.320312 0.0546875 L 0.0117188 0.0546875 L 0.0117188 11.398438 L 6.46875 11.398438 L 6.46875 6.050781 L 15.886719 6.050781 C 17.347656 6.050781 18.75 6.621094 19.785156 7.640625 C 20.820312 8.660156 21.398438 10.042969 21.398438 11.484375 C 21.398438 12.925781 20.820312 14.308594 19.785156 15.328125 C 18.75 16.347656 17.347656 16.921875 15.886719 16.921875 L 9.039062 16.921875 C 7.855469 16.921875 6.679688 17.152344 5.585938 17.597656 C 4.488281 18.046875 3.492188 18.703125 2.652344 19.53125 C 1.816406 20.355469 1.148438 21.339844 0.695312 22.417969 C 0.242188 23.5 0.0117188 24.660156 0.0117188 25.828125 Z M 0.0117188 25.828125 "/>
<path style=" stroke:none;fill-rule:nonzero;fill:url(#linear0);" d="M 9.699219 23.035156 C 7.128906 23.035156 4.664062 24.042969 2.847656 25.835938 C 1.03125 27.625 0.0117188 30.054688 0.0117188 32.589844 L 0.0117188 34.902344 L 6.46875 34.902344 L 6.46875 26.222656 C 6.46875 25.378906 6.808594 24.566406 7.414062 23.96875 C 8.019531 23.371094 8.84375 23.035156 9.699219 23.035156 Z M 9.699219 23.035156 "/>
</g>
</svg>
