<?xml version="1.0" encoding="UTF-8"?>
<svg xmlns="http://www.w3.org/2000/svg" xmlns:xlink="http://www.w3.org/1999/xlink" width="145px" height="30px" viewBox="0 0 144 30" version="1.1">
<g id="surface1">
<path style=" stroke:none;fill-rule:evenodd;fill:rgb(37.254902%,55.686275%,61.960784%);fill-opacity:1;" d="M 25.089844 5.25 C 24.050781 3.597656 22.417969 2.25 20.484375 1.347656 C 18.554688 0.449219 16.183594 0 13.511719 0 L 0 0 L 0 6.75 L 13.0625 6.75 C 14.699219 6.75 16.03125 7.199219 16.925781 7.949219 C 17.8125 8.699219 18.257812 9.902344 18.257812 11.25 C 18.257812 12.597656 17.8125 13.800781 16.925781 14.550781 C 16.03125 15.300781 14.699219 15.597656 13.0625 15.597656 L 0 15.597656 L 0 30 L 8.3125 30 L 8.3125 22.199219 L 13.511719 22.199219 C 16.183594 22.199219 18.554688 21.75 20.484375 20.847656 C 22.417969 19.949219 23.902344 18.597656 25.089844 16.949219 C 26.128906 15.300781 26.71875 13.347656 26.71875 11.097656 C 26.71875 8.847656 26.128906 6.902344 25.089844 5.25 Z M 25.089844 5.25 "/>
<path style=" stroke:none;fill-rule:evenodd;fill:rgb(55.294118%,68.235294%,65.882353%);fill-opacity:1;" d="M 36.371094 0 L 28.203125 0 L 35.332031 23.550781 L 39.339844 10.050781 Z M 66.65625 0 L 60.714844 19.347656 L 57.601562 30 L 65.171875 30 L 74.226562 0 Z M 55.226562 0 L 47.949219 0 L 42.011719 19.199219 L 38.894531 30 L 45.722656 30 L 51.363281 11.699219 L 54.332031 21.75 L 58.042969 9.902344 Z M 55.226562 0 "/>
<path style=" stroke:none;fill-rule:evenodd;fill:rgb(70.980392%,79.215686%,69.411765%);fill-opacity:1;" d="M 80.164062 30 L 88.328125 30 L 88.328125 24.902344 L 80.164062 14.402344 Z M 100.203125 0 L 100.203125 5.402344 L 108.371094 15.449219 L 108.371094 0 Z M 100.203125 16.050781 L 86.996094 0 L 80.164062 0 L 80.164062 4.050781 L 101.542969 30 L 108.371094 30 L 108.371094 26.550781 Z M 100.203125 16.050781 "/>
<path style=" stroke:none;fill-rule:evenodd;fill:rgb(89.019608%,91.764706%,73.333333%);fill-opacity:1;" d="M 124.703125 3.152344 L 122.621094 0 L 113.269531 0 L 119.800781 9.449219 Z M 137.023438 20.25 L 132.125 26.550781 L 134.351562 30 L 144 30 Z M 143.257812 0 L 134.203125 0 L 112.828125 30 L 122.324219 30 Z M 143.257812 0 "/>
</g>
</svg>
