<?xml version="1.0" encoding="UTF-8"?>
<svg xmlns="http://www.w3.org/2000/svg" xmlns:xlink="http://www.w3.org/1999/xlink" width="121px" height="25px" viewBox="0 0 120 25" version="1.1">
<g id="surface1">
<path style=" stroke:none;fill-rule:evenodd;fill:rgb(37.254902%,55.686275%,61.960784%);fill-opacity:1;" d="M 21.179688 4.375 C 20.316406 2.996094 18.964844 1.875 17.367188 1.121094 C 15.769531 0.375 13.808594 0 11.597656 0 L 0.414062 0 L 0.414062 5.625 L 11.222656 5.625 C 12.578125 5.625 13.679688 6 14.421875 6.625 C 15.15625 7.25 15.523438 8.253906 15.523438 9.375 C 15.523438 10.496094 15.15625 11.5 14.421875 12.125 C 13.679688 12.75 12.578125 12.996094 11.222656 12.996094 L 0.414062 12.996094 L 0.414062 25 L 7.292969 25 L 7.292969 18.5 L 11.597656 18.5 C 13.808594 18.5 15.769531 18.125 17.367188 17.371094 C 18.964844 16.625 20.195312 15.496094 21.179688 14.125 C 22.039062 12.75 22.527344 11.121094 22.527344 9.246094 C 22.527344 7.371094 22.039062 5.753906 21.179688 4.375 Z M 21.179688 4.375 "/>
<path style=" stroke:none;fill-rule:evenodd;fill:rgb(55.294118%,68.235294%,65.882353%);fill-opacity:1;" d="M 30.515625 0 L 23.753906 0 L 29.652344 19.625 L 32.972656 8.375 Z M 55.578125 0 L 50.660156 16.121094 L 48.085938 25 L 54.347656 25 L 61.84375 0 Z M 46.117188 0 L 40.097656 0 L 35.183594 16 L 32.601562 25 L 38.253906 25 L 42.921875 9.75 L 45.378906 18.125 L 48.449219 8.253906 Z M 46.117188 0 "/>
<path style=" stroke:none;fill-rule:evenodd;fill:rgb(70.980392%,79.215686%,69.411765%);fill-opacity:1;" d="M 66.757812 25 L 73.511719 25 L 73.511719 20.753906 L 66.757812 12.003906 Z M 83.339844 0 L 83.339844 4.503906 L 90.101562 12.875 L 90.101562 0 Z M 83.339844 13.375 L 72.410156 0 L 66.757812 0 L 66.757812 3.375 L 84.449219 25 L 90.101562 25 L 90.101562 22.125 Z M 83.339844 13.375 "/>
<path style=" stroke:none;fill-rule:evenodd;fill:rgb(89.019608%,91.764706%,73.333333%);fill-opacity:1;" d="M 103.617188 2.628906 L 101.894531 0 L 94.152344 0 L 99.558594 7.875 Z M 113.8125 16.875 L 109.757812 22.125 L 111.601562 25 L 119.585938 25 Z M 118.972656 0 L 111.476562 0 L 93.789062 25 L 101.648438 25 Z M 118.972656 0 "/>
</g>
</svg>
