<?xml version="1.0" encoding="UTF-8"?>
<svg xmlns="http://www.w3.org/2000/svg" xmlns:xlink="http://www.w3.org/1999/xlink" width="62px" height="35px" viewBox="0 0 62 35" version="1.1">
<g id="surface1">
<path style=" stroke:none;fill-rule:nonzero;fill:rgb(100%,100%,100%);fill-opacity:1;" d="M 38.875 16.5625 L 37.394531 16.5625 L 37.394531 10.425781 L 35.335938 10.425781 L 35.335938 9.023438 L 40.9375 9.023438 L 40.9375 10.425781 L 38.875 10.425781 L 38.875 16.5625 "/>
<path style=" stroke:none;fill-rule:nonzero;fill:rgb(100%,100%,100%);fill-opacity:1;" d="M 44.660156 12.425781 C 43.664062 12.425781 43.160156 13.105469 43.160156 14.128906 L 43.160156 16.5625 L 41.796875 16.5625 L 41.796875 11.175781 L 42.707031 11.175781 L 42.859375 12.339844 C 43.257812 11.585938 43.976562 11.101562 44.984375 11.101562 L 45.210938 11.101562 L 45.210938 12.425781 L 44.660156 12.425781 "/>
<path style=" stroke:none;fill-rule:nonzero;fill:rgb(100%,100%,100%);fill-opacity:1;" d="M 51.671875 15.875 C 51.671875 17.445312 50.652344 18.621094 48.988281 18.621094 C 48 18.621094 47.183594 18.265625 46.605469 17.78125 L 47.378906 16.949219 C 47.890625 17.207031 48.375 17.382812 48.988281 17.371094 C 49.761719 17.371094 50.296875 16.972656 50.296875 16.1875 L 50.296875 15.839844 C 49.953125 16.28125 49.386719 16.476562 48.828125 16.476562 C 47.269531 16.476562 46.476562 15.410156 46.476562 13.847656 L 46.476562 11.175781 L 47.839844 11.175781 L 47.839844 13.773438 C 47.839844 14.765625 48.3125 15.152344 49.042969 15.152344 C 49.8125 15.152344 50.308594 14.6875 50.308594 13.652344 L 50.308594 11.175781 L 51.671875 11.175781 L 51.671875 15.875 "/>
<path style=" stroke:none;fill-rule:nonzero;fill:rgb(100%,100%,100%);fill-opacity:1;" d="M 40.390625 26.160156 L 40.390625 23.066406 L 37.480469 23.066406 L 37.480469 26.160156 L 36 26.160156 L 36 18.621094 L 37.480469 18.621094 L 37.480469 21.667969 L 40.390625 21.667969 L 40.390625 18.621094 L 41.871094 18.621094 L 41.871094 26.160156 L 40.390625 26.160156 "/>
<path style=" stroke:none;fill-rule:nonzero;fill:rgb(100%,100%,100%);fill-opacity:1;" d="M 47.570312 23.464844 C 47.570312 22.582031 46.894531 22.023438 46.1875 22.023438 C 45.46875 22.023438 44.800781 22.582031 44.800781 23.464844 C 44.800781 24.347656 45.46875 24.898438 46.1875 24.898438 C 46.894531 24.898438 47.570312 24.347656 47.570312 23.464844 Z M 47.914062 26.160156 L 47.839844 25.394531 C 47.441406 25.902344 46.796875 26.222656 46.058594 26.222656 C 44.53125 26.222656 43.4375 24.996094 43.4375 23.464844 C 43.4375 21.9375 44.53125 20.699219 46.058594 20.699219 C 46.796875 20.699219 47.441406 21.03125 47.839844 21.539062 L 47.914062 20.773438 L 48.828125 20.773438 L 48.828125 26.160156 L 47.914062 26.160156 "/>
<path style=" stroke:none;fill-rule:nonzero;fill:rgb(100%,100%,100%);fill-opacity:1;" d="M 55.203125 21.699219 L 54.386719 22.582031 C 53.945312 22.171875 53.558594 22.035156 53.085938 22.035156 C 52.367188 22.035156 51.703125 22.582031 51.703125 23.464844 C 51.703125 24.347656 52.367188 24.898438 53.085938 24.898438 C 53.558594 24.898438 53.945312 24.757812 54.386719 24.347656 L 55.203125 25.234375 C 54.699219 25.835938 53.9375 26.222656 53.085938 26.222656 C 51.5625 26.222656 50.339844 24.996094 50.339844 23.464844 C 50.339844 21.9375 51.5625 20.707031 53.085938 20.707031 C 53.9375 20.707031 54.699219 21.097656 55.203125 21.699219 "/>
<path style=" stroke:none;fill-rule:nonzero;fill:rgb(100%,100%,100%);fill-opacity:1;" d="M 59.472656 24.726562 C 59.152344 24.230469 58.96875 24.046875 58.453125 24.046875 L 58.078125 24.046875 L 58.078125 26.160156 L 56.714844 26.160156 L 56.714844 18.621094 L 58.078125 18.621094 L 58.078125 22.734375 L 58.410156 22.734375 C 58.914062 22.734375 59.097656 22.5625 59.421875 22.054688 L 60.257812 20.773438 L 61.769531 20.773438 L 60.570312 22.59375 C 60.34375 22.949219 60.042969 23.28125 59.808594 23.378906 C 60.074219 23.464844 60.375 23.8125 60.625 24.1875 L 61.910156 26.160156 L 60.398438 26.160156 L 59.472656 24.726562 "/>
<path style=" stroke:none;fill-rule:nonzero;fill:rgb(100%,100%,100%);fill-opacity:1;" d="M 41.894531 34.804688 L 41.894531 29.988281 L 39.628906 32.8125 L 37.375 29.988281 L 37.375 34.804688 L 35.890625 34.804688 L 35.890625 27.265625 L 36.773438 27.265625 L 39.628906 30.863281 L 42.492188 27.265625 L 43.375 27.265625 L 43.375 34.804688 L 41.894531 34.804688 "/>
<path style=" stroke:none;fill-rule:nonzero;fill:rgb(100%,100%,100%);fill-opacity:1;" d="M 46.550781 31.628906 L 49.007812 31.628906 C 49.007812 31.5 48.964844 31.328125 48.878906 31.195312 C 48.699219 30.851562 48.3125 30.59375 47.796875 30.59375 C 47.066406 30.59375 46.570312 31.109375 46.550781 31.628906 Z M 50.15625 30.796875 C 50.382812 31.292969 50.394531 32.027344 50.242188 32.488281 L 46.496094 32.488281 C 46.496094 33.222656 47.097656 33.621094 47.828125 33.621094 C 48.386719 33.621094 48.964844 33.492188 49.449219 33.242188 L 50.167969 34.03125 C 49.589844 34.460938 48.78125 34.871094 47.828125 34.871094 C 46.195312 34.871094 45.089844 33.683594 45.089844 32.113281 C 45.089844 30.582031 46.121094 29.34375 47.796875 29.34375 C 48.945312 29.34375 49.75 29.894531 50.15625 30.796875 "/>
<path style=" stroke:none;fill-rule:nonzero;fill:rgb(100%,100%,100%);fill-opacity:1;" d="M 18.378906 18.046875 L 18.378906 15.492188 L 17.734375 15.992188 L 17.308594 15.410156 L 18.449219 14.570312 L 19.199219 14.570312 L 19.199219 18.046875 L 18.378906 18.046875 "/>
<path style=" stroke:none;fill-rule:nonzero;fill:rgb(100%,100%,100%);fill-opacity:1;" d="M 21.738281 16.296875 C 21.738281 16.191406 21.730469 16.070312 21.71875 15.941406 C 21.707031 15.808594 21.683594 15.6875 21.644531 15.574219 C 21.609375 15.460938 21.558594 15.367188 21.492188 15.289062 C 21.425781 15.210938 21.335938 15.171875 21.230469 15.171875 C 21.121094 15.171875 21.035156 15.210938 20.964844 15.289062 C 20.894531 15.367188 20.84375 15.460938 20.804688 15.574219 C 20.769531 15.6875 20.742188 15.808594 20.730469 15.941406 C 20.714844 16.070312 20.710938 16.191406 20.710938 16.296875 C 20.710938 16.410156 20.714844 16.53125 20.730469 16.664062 C 20.742188 16.796875 20.769531 16.921875 20.804688 17.03125 C 20.84375 17.144531 20.894531 17.242188 20.964844 17.316406 C 21.035156 17.394531 21.121094 17.433594 21.230469 17.433594 C 21.335938 17.433594 21.425781 17.394531 21.492188 17.316406 C 21.558594 17.242188 21.609375 17.144531 21.644531 17.03125 C 21.683594 16.921875 21.707031 16.796875 21.71875 16.664062 C 21.730469 16.53125 21.738281 16.410156 21.738281 16.296875 Z M 22.582031 16.296875 C 22.582031 16.542969 22.554688 16.777344 22.507812 17 C 22.457031 17.222656 22.378906 17.417969 22.273438 17.585938 C 22.164062 17.757812 22.023438 17.890625 21.855469 17.992188 C 21.683594 18.089844 21.472656 18.140625 21.230469 18.140625 C 20.984375 18.140625 20.777344 18.089844 20.601562 17.992188 C 20.429688 17.890625 20.289062 17.757812 20.179688 17.585938 C 20.070312 17.417969 19.992188 17.222656 19.941406 17 C 19.894531 16.777344 19.867188 16.542969 19.867188 16.296875 C 19.867188 16.054688 19.894531 15.820312 19.941406 15.597656 C 19.992188 15.378906 20.070312 15.183594 20.179688 15.019531 C 20.289062 14.851562 20.429688 14.722656 20.601562 14.625 C 20.777344 14.523438 20.984375 14.476562 21.230469 14.476562 C 21.472656 14.476562 21.683594 14.523438 21.855469 14.625 C 22.023438 14.722656 22.164062 14.851562 22.273438 15.019531 C 22.378906 15.183594 22.457031 15.378906 22.507812 15.597656 C 22.554688 15.820312 22.582031 16.054688 22.582031 16.296875 "/>
<path style=" stroke:none;fill-rule:nonzero;fill:rgb(100%,100%,100%);fill-opacity:1;" d="M 27.175781 18.046875 L 27.175781 15.492188 L 26.53125 15.992188 L 26.101562 15.410156 L 27.246094 14.570312 L 27.992188 14.570312 L 27.992188 18.046875 L 27.175781 18.046875 "/>
<path style=" stroke:none;fill-rule:nonzero;fill:rgb(100%,100%,100%);fill-opacity:1;" d="M 30.535156 16.296875 C 30.535156 16.191406 30.527344 16.070312 30.515625 15.941406 C 30.5 15.808594 30.476562 15.6875 30.441406 15.574219 C 30.40625 15.460938 30.355469 15.367188 30.289062 15.289062 C 30.21875 15.210938 30.132812 15.171875 30.023438 15.171875 C 29.917969 15.171875 29.828125 15.210938 29.761719 15.289062 C 29.691406 15.367188 29.640625 15.460938 29.601562 15.574219 C 29.5625 15.6875 29.539062 15.808594 29.527344 15.941406 C 29.511719 16.070312 29.507812 16.191406 29.507812 16.296875 C 29.507812 16.410156 29.511719 16.53125 29.527344 16.664062 C 29.539062 16.796875 29.5625 16.921875 29.601562 17.03125 C 29.640625 17.144531 29.691406 17.242188 29.761719 17.316406 C 29.828125 17.394531 29.917969 17.433594 30.023438 17.433594 C 30.132812 17.433594 30.21875 17.394531 30.289062 17.316406 C 30.355469 17.242188 30.40625 17.144531 30.441406 17.03125 C 30.476562 16.921875 30.5 16.796875 30.515625 16.664062 C 30.527344 16.53125 30.535156 16.410156 30.535156 16.296875 Z M 31.375 16.296875 C 31.375 16.542969 31.351562 16.777344 31.304688 17 C 31.253906 17.222656 31.175781 17.417969 31.066406 17.585938 C 30.960938 17.757812 30.820312 17.890625 30.648438 17.992188 C 30.476562 18.089844 30.269531 18.140625 30.023438 18.140625 C 29.78125 18.140625 29.570312 18.089844 29.398438 17.992188 C 29.226562 17.890625 29.085938 17.757812 28.976562 17.585938 C 28.867188 17.417969 28.785156 17.222656 28.738281 17 C 28.6875 16.777344 28.664062 16.542969 28.664062 16.296875 C 28.664062 16.054688 28.6875 15.820312 28.738281 15.597656 C 28.785156 15.378906 28.867188 15.183594 28.976562 15.019531 C 29.085938 14.851562 29.226562 14.722656 29.398438 14.625 C 29.570312 14.523438 29.78125 14.476562 30.023438 14.476562 C 30.269531 14.476562 30.476562 14.523438 30.648438 14.625 C 30.820312 14.722656 30.960938 14.851562 31.066406 15.019531 C 31.175781 15.183594 31.253906 15.378906 31.304688 15.597656 C 31.351562 15.820312 31.375 16.054688 31.375 16.296875 "/>
<path style=" stroke:none;fill-rule:nonzero;fill:rgb(100%,100%,100%);fill-opacity:1;" d="M 18.304688 23.523438 L 18.304688 20.96875 L 17.65625 21.46875 L 17.230469 20.882812 L 18.371094 20.042969 L 19.121094 20.042969 L 19.121094 23.523438 L 18.304688 23.523438 "/>
<path style=" stroke:none;fill-rule:nonzero;fill:rgb(100%,100%,100%);fill-opacity:1;" d="M 21.1875 23.523438 L 21.1875 20.96875 L 20.539062 21.46875 L 20.113281 20.882812 L 21.253906 20.042969 L 22.003906 20.042969 L 22.003906 23.523438 L 21.1875 23.523438 "/>
<path style=" stroke:none;fill-rule:nonzero;fill:rgb(100%,100%,100%);fill-opacity:1;" d="M 24.054688 23.523438 L 24.054688 20.96875 L 23.410156 21.46875 L 22.984375 20.882812 L 24.125 20.042969 L 24.875 20.042969 L 24.875 23.523438 L 24.054688 23.523438 "/>
<path style=" stroke:none;fill-rule:nonzero;fill:rgb(100%,100%,100%);fill-opacity:1;" d="M 27.5625 21.773438 C 27.5625 21.664062 27.554688 21.546875 27.542969 21.414062 C 27.53125 21.285156 27.503906 21.160156 27.46875 21.050781 C 27.433594 20.9375 27.382812 20.839844 27.316406 20.765625 C 27.25 20.6875 27.160156 20.648438 27.054688 20.648438 C 26.945312 20.648438 26.859375 20.6875 26.789062 20.765625 C 26.71875 20.839844 26.667969 20.9375 26.628906 21.050781 C 26.59375 21.160156 26.566406 21.285156 26.554688 21.414062 C 26.539062 21.546875 26.535156 21.664062 26.535156 21.773438 C 26.535156 21.882812 26.539062 22.007812 26.554688 22.140625 C 26.566406 22.273438 26.59375 22.394531 26.628906 22.507812 C 26.667969 22.621094 26.71875 22.714844 26.789062 22.792969 C 26.859375 22.871094 26.945312 22.910156 27.054688 22.910156 C 27.160156 22.910156 27.25 22.871094 27.316406 22.792969 C 27.382812 22.714844 27.433594 22.621094 27.46875 22.507812 C 27.503906 22.394531 27.53125 22.273438 27.542969 22.140625 C 27.554688 22.007812 27.5625 21.882812 27.5625 21.773438 Z M 28.40625 21.773438 C 28.40625 22.019531 28.378906 22.253906 28.332031 22.476562 C 28.28125 22.699219 28.203125 22.894531 28.097656 23.0625 C 27.988281 23.230469 27.847656 23.367188 27.675781 23.464844 C 27.507812 23.566406 27.296875 23.613281 27.054688 23.613281 C 26.808594 23.613281 26.601562 23.566406 26.425781 23.464844 C 26.253906 23.367188 26.113281 23.230469 26.003906 23.0625 C 25.894531 22.894531 25.816406 22.699219 25.765625 22.476562 C 25.71875 22.253906 25.691406 22.019531 25.691406 21.773438 C 25.691406 21.527344 25.71875 21.292969 25.765625 21.074219 C 25.816406 20.851562 25.894531 20.660156 26.003906 20.496094 C 26.113281 20.328125 26.253906 20.195312 26.425781 20.097656 C 26.601562 20 26.808594 19.949219 27.054688 19.949219 C 27.296875 19.949219 27.507812 20 27.675781 20.097656 C 27.847656 20.195312 27.988281 20.328125 28.097656 20.496094 C 28.203125 20.660156 28.28125 20.851562 28.332031 21.074219 C 28.378906 21.292969 28.40625 21.527344 28.40625 21.773438 "/>
<path style=" stroke:none;fill-rule:nonzero;fill:rgb(100%,100%,100%);fill-opacity:1;" d="M 19.960938 27.421875 L 19.960938 25.566406 L 19.492188 25.929688 L 19.183594 25.507812 L 20.011719 24.894531 L 20.554688 24.894531 L 20.554688 27.421875 L 19.960938 27.421875 "/>
<path style=" stroke:none;fill-rule:nonzero;fill:rgb(100%,100%,100%);fill-opacity:1;" d="M 24.121094 27.421875 L 24.121094 25.566406 L 23.652344 25.929688 L 23.34375 25.507812 L 24.171875 24.894531 L 24.714844 24.894531 L 24.714844 27.421875 L 24.121094 27.421875 "/>
<path style=" stroke:none;fill-rule:nonzero;fill:rgb(100%,100%,100%);fill-opacity:1;" d="M 18.296875 26.152344 C 18.296875 26.074219 18.292969 25.988281 18.285156 25.890625 C 18.273438 25.796875 18.257812 25.707031 18.230469 25.625 C 18.203125 25.542969 18.167969 25.476562 18.117188 25.417969 C 18.070312 25.363281 18.007812 25.335938 17.929688 25.335938 C 17.847656 25.335938 17.785156 25.363281 17.734375 25.417969 C 17.6875 25.476562 17.648438 25.542969 17.621094 25.625 C 17.59375 25.707031 17.574219 25.796875 17.566406 25.890625 C 17.554688 25.988281 17.550781 26.074219 17.550781 26.152344 C 17.550781 26.234375 17.554688 26.320312 17.566406 26.417969 C 17.574219 26.511719 17.59375 26.605469 17.621094 26.683594 C 17.648438 26.765625 17.6875 26.835938 17.734375 26.890625 C 17.785156 26.949219 17.847656 26.976562 17.929688 26.976562 C 18.007812 26.976562 18.070312 26.949219 18.117188 26.890625 C 18.167969 26.835938 18.203125 26.765625 18.230469 26.683594 C 18.257812 26.605469 18.273438 26.511719 18.285156 26.417969 C 18.292969 26.320312 18.296875 26.234375 18.296875 26.152344 Z M 18.910156 26.152344 C 18.910156 26.332031 18.890625 26.5 18.855469 26.660156 C 18.820312 26.824219 18.761719 26.964844 18.683594 27.085938 C 18.605469 27.210938 18.503906 27.308594 18.382812 27.378906 C 18.257812 27.453125 18.105469 27.488281 17.929688 27.488281 C 17.75 27.488281 17.597656 27.453125 17.472656 27.378906 C 17.347656 27.308594 17.246094 27.210938 17.164062 27.085938 C 17.085938 26.964844 17.027344 26.824219 16.992188 26.660156 C 16.957031 26.5 16.941406 26.332031 16.941406 26.152344 C 16.941406 25.972656 16.957031 25.804688 16.992188 25.644531 C 17.027344 25.484375 17.085938 25.34375 17.164062 25.222656 C 17.246094 25.101562 17.347656 25.007812 17.472656 24.933594 C 17.597656 24.863281 17.75 24.828125 17.929688 24.828125 C 18.105469 24.828125 18.257812 24.863281 18.382812 24.933594 C 18.503906 25.007812 18.605469 25.101562 18.683594 25.222656 C 18.761719 25.34375 18.820312 25.484375 18.855469 25.644531 C 18.890625 25.804688 18.910156 25.972656 18.910156 26.152344 "/>
<path style=" stroke:none;fill-rule:nonzero;fill:rgb(100%,100%,100%);fill-opacity:1;" d="M 22.480469 26.152344 C 22.480469 26.074219 22.476562 25.988281 22.46875 25.890625 C 22.457031 25.796875 22.441406 25.707031 22.414062 25.625 C 22.390625 25.542969 22.351562 25.476562 22.300781 25.417969 C 22.253906 25.363281 22.191406 25.335938 22.113281 25.335938 C 22.035156 25.335938 21.96875 25.363281 21.921875 25.417969 C 21.871094 25.476562 21.832031 25.542969 21.804688 25.625 C 21.777344 25.707031 21.757812 25.796875 21.75 25.890625 C 21.742188 25.988281 21.734375 26.074219 21.734375 26.152344 C 21.734375 26.234375 21.742188 26.320312 21.75 26.417969 C 21.757812 26.511719 21.777344 26.605469 21.804688 26.683594 C 21.832031 26.765625 21.871094 26.835938 21.921875 26.890625 C 21.96875 26.949219 22.035156 26.976562 22.113281 26.976562 C 22.191406 26.976562 22.253906 26.949219 22.300781 26.890625 C 22.351562 26.835938 22.390625 26.765625 22.414062 26.683594 C 22.441406 26.605469 22.457031 26.511719 22.46875 26.417969 C 22.476562 26.320312 22.480469 26.234375 22.480469 26.152344 Z M 23.09375 26.152344 C 23.09375 26.332031 23.074219 26.5 23.039062 26.660156 C 23.003906 26.824219 22.949219 26.964844 22.871094 27.085938 C 22.789062 27.210938 22.691406 27.308594 22.566406 27.378906 C 22.441406 27.453125 22.289062 27.488281 22.113281 27.488281 C 21.933594 27.488281 21.785156 27.453125 21.65625 27.378906 C 21.53125 27.308594 21.429688 27.210938 21.351562 27.085938 C 21.269531 26.964844 21.214844 26.824219 21.179688 26.660156 C 21.140625 26.5 21.125 26.332031 21.125 26.152344 C 21.125 25.972656 21.140625 25.804688 21.179688 25.644531 C 21.214844 25.484375 21.269531 25.34375 21.351562 25.222656 C 21.429688 25.101562 21.53125 25.007812 21.65625 24.933594 C 21.785156 24.863281 21.933594 24.828125 22.113281 24.828125 C 22.289062 24.828125 22.441406 24.863281 22.566406 24.933594 C 22.691406 25.007812 22.789062 25.101562 22.871094 25.222656 C 22.949219 25.34375 23.003906 25.484375 23.039062 25.644531 C 23.074219 25.804688 23.09375 25.972656 23.09375 26.152344 "/>
<path style=" stroke:none;fill-rule:nonzero;fill:rgb(100%,100%,100%);fill-opacity:1;" d="M 31.046875 27.421875 L 31.046875 25.566406 L 30.578125 25.929688 L 30.269531 25.507812 L 31.097656 24.894531 L 31.640625 24.894531 L 31.640625 27.421875 L 31.046875 27.421875 "/>
<path style=" stroke:none;fill-rule:nonzero;fill:rgb(100%,100%,100%);fill-opacity:1;" d="M 29.410156 26.152344 C 29.410156 26.074219 29.40625 25.988281 29.394531 25.890625 C 29.386719 25.796875 29.367188 25.707031 29.339844 25.625 C 29.316406 25.542969 29.277344 25.476562 29.230469 25.417969 C 29.179688 25.363281 29.117188 25.335938 29.039062 25.335938 C 28.960938 25.335938 28.898438 25.363281 28.847656 25.417969 C 28.796875 25.476562 28.757812 25.542969 28.730469 25.625 C 28.707031 25.707031 28.6875 25.796875 28.675781 25.890625 C 28.667969 25.988281 28.664062 26.074219 28.664062 26.152344 C 28.664062 26.234375 28.667969 26.320312 28.675781 26.417969 C 28.6875 26.511719 28.707031 26.605469 28.730469 26.683594 C 28.757812 26.765625 28.796875 26.835938 28.847656 26.890625 C 28.898438 26.949219 28.960938 26.976562 29.039062 26.976562 C 29.117188 26.976562 29.179688 26.949219 29.230469 26.890625 C 29.277344 26.835938 29.316406 26.765625 29.339844 26.683594 C 29.367188 26.605469 29.386719 26.511719 29.394531 26.417969 C 29.40625 26.320312 29.410156 26.234375 29.410156 26.152344 Z M 30.019531 26.152344 C 30.019531 26.332031 30.003906 26.5 29.96875 26.660156 C 29.929688 26.824219 29.875 26.964844 29.796875 27.085938 C 29.71875 27.210938 29.617188 27.308594 29.492188 27.378906 C 29.367188 27.453125 29.21875 27.488281 29.039062 27.488281 C 28.863281 27.488281 28.710938 27.453125 28.585938 27.378906 C 28.457031 27.308594 28.355469 27.210938 28.277344 27.085938 C 28.199219 26.964844 28.140625 26.824219 28.105469 26.660156 C 28.070312 26.5 28.050781 26.332031 28.050781 26.152344 C 28.050781 25.972656 28.070312 25.804688 28.105469 25.644531 C 28.140625 25.484375 28.199219 25.34375 28.277344 25.222656 C 28.355469 25.101562 28.457031 25.007812 28.585938 24.933594 C 28.710938 24.863281 28.863281 24.828125 29.039062 24.828125 C 29.21875 24.828125 29.367188 24.863281 29.492188 24.933594 C 29.617188 25.007812 29.71875 25.101562 29.796875 25.222656 C 29.875 25.34375 29.929688 25.484375 29.96875 25.644531 C 30.003906 25.804688 30.019531 25.972656 30.019531 26.152344 "/>
<path style=" stroke:none;fill-rule:nonzero;fill:rgb(100%,100%,100%);fill-opacity:1;" d="M 28.765625 30.394531 L 28.765625 28.542969 L 28.296875 28.90625 L 27.984375 28.480469 L 28.8125 27.871094 L 29.359375 27.871094 L 29.359375 30.394531 L 28.765625 30.394531 "/>
<path style=" stroke:none;fill-rule:nonzero;fill:rgb(100%,100%,100%);fill-opacity:1;" d="M 27.125 29.125 C 27.125 29.046875 27.121094 28.960938 27.109375 28.867188 C 27.101562 28.773438 27.082031 28.683594 27.058594 28.601562 C 27.03125 28.519531 26.996094 28.449219 26.945312 28.394531 C 26.898438 28.339844 26.832031 28.3125 26.753906 28.3125 C 26.675781 28.3125 26.613281 28.339844 26.5625 28.394531 C 26.515625 28.449219 26.476562 28.519531 26.449219 28.601562 C 26.421875 28.683594 26.402344 28.773438 26.394531 28.867188 C 26.382812 28.960938 26.378906 29.046875 26.378906 29.125 C 26.378906 29.207031 26.382812 29.296875 26.394531 29.390625 C 26.402344 29.488281 26.421875 29.578125 26.449219 29.660156 C 26.476562 29.742188 26.515625 29.8125 26.5625 29.867188 C 26.613281 29.921875 26.675781 29.949219 26.753906 29.949219 C 26.832031 29.949219 26.898438 29.921875 26.945312 29.867188 C 26.996094 29.8125 27.03125 29.742188 27.058594 29.660156 C 27.082031 29.578125 27.101562 29.488281 27.109375 29.390625 C 27.121094 29.296875 27.125 29.207031 27.125 29.125 Z M 27.734375 29.125 C 27.734375 29.304688 27.71875 29.476562 27.683594 29.636719 C 27.648438 29.796875 27.589844 29.941406 27.511719 30.0625 C 27.433594 30.1875 27.332031 30.285156 27.207031 30.355469 C 27.085938 30.429688 26.933594 30.464844 26.753906 30.464844 C 26.578125 30.464844 26.425781 30.429688 26.300781 30.355469 C 26.175781 30.285156 26.074219 30.1875 25.992188 30.0625 C 25.914062 29.941406 25.855469 29.796875 25.820312 29.636719 C 25.785156 29.476562 25.765625 29.304688 25.765625 29.125 C 25.765625 28.949219 25.785156 28.777344 25.820312 28.617188 C 25.855469 28.457031 25.914062 28.316406 25.992188 28.199219 C 26.074219 28.078125 26.175781 27.980469 26.300781 27.910156 C 26.425781 27.839844 26.578125 27.804688 26.753906 27.804688 C 26.933594 27.804688 27.085938 27.839844 27.207031 27.910156 C 27.332031 27.980469 27.433594 28.078125 27.511719 28.199219 C 27.589844 28.316406 27.648438 28.457031 27.683594 28.617188 C 27.71875 28.777344 27.734375 28.949219 27.734375 29.125 "/>
<path style=" stroke:none;fill-rule:nonzero;fill:rgb(100%,100%,100%);fill-opacity:1;" d="M 19.128906 30.359375 L 19.128906 29.074219 L 18.804688 29.328125 L 18.589844 29.03125 L 19.164062 28.609375 L 19.542969 28.609375 L 19.542969 30.359375 L 19.128906 30.359375 "/>
<path style=" stroke:none;fill-rule:nonzero;fill:rgb(100%,100%,100%);fill-opacity:1;" d="M 17.996094 29.480469 C 17.996094 29.425781 17.992188 29.367188 17.984375 29.300781 C 17.976562 29.234375 17.964844 29.171875 17.949219 29.117188 C 17.929688 29.058594 17.902344 29.011719 17.871094 28.972656 C 17.835938 28.933594 17.792969 28.914062 17.738281 28.914062 C 17.683594 28.914062 17.640625 28.933594 17.605469 28.972656 C 17.570312 29.011719 17.542969 29.058594 17.523438 29.117188 C 17.507812 29.171875 17.492188 29.234375 17.488281 29.300781 C 17.480469 29.367188 17.476562 29.425781 17.476562 29.480469 C 17.476562 29.535156 17.480469 29.597656 17.488281 29.664062 C 17.492188 29.730469 17.507812 29.792969 17.523438 29.847656 C 17.542969 29.90625 17.570312 29.953125 17.605469 29.992188 C 17.640625 30.03125 17.683594 30.050781 17.738281 30.050781 C 17.792969 30.050781 17.835938 30.03125 17.871094 29.992188 C 17.902344 29.953125 17.929688 29.90625 17.949219 29.847656 C 17.964844 29.792969 17.976562 29.730469 17.984375 29.664062 C 17.992188 29.597656 17.996094 29.535156 17.996094 29.480469 Z M 18.417969 29.480469 C 18.417969 29.605469 18.40625 29.722656 18.382812 29.832031 C 18.355469 29.945312 18.316406 30.042969 18.261719 30.128906 C 18.207031 30.214844 18.136719 30.28125 18.050781 30.332031 C 17.964844 30.382812 17.859375 30.40625 17.738281 30.40625 C 17.613281 30.40625 17.507812 30.382812 17.421875 30.332031 C 17.335938 30.28125 17.265625 30.214844 17.210938 30.128906 C 17.15625 30.042969 17.113281 29.945312 17.089844 29.832031 C 17.066406 29.722656 17.054688 29.605469 17.054688 29.480469 C 17.054688 29.355469 17.066406 29.238281 17.089844 29.128906 C 17.113281 29.015625 17.15625 28.917969 17.210938 28.835938 C 17.265625 28.753906 17.335938 28.6875 17.421875 28.636719 C 17.507812 28.589844 17.613281 28.5625 17.738281 28.5625 C 17.859375 28.5625 17.964844 28.589844 18.050781 28.636719 C 18.136719 28.6875 18.207031 28.753906 18.261719 28.835938 C 18.316406 28.917969 18.355469 29.015625 18.382812 29.128906 C 18.40625 29.238281 18.417969 29.355469 18.417969 29.480469 "/>
<path style=" stroke:none;fill-rule:nonzero;fill:rgb(100%,100%,100%);fill-opacity:1;" d="M 24.25 32.605469 L 24.25 31.324219 L 23.925781 31.574219 L 23.710938 31.28125 L 24.285156 30.855469 L 24.660156 30.855469 L 24.660156 32.605469 L 24.25 32.605469 "/>
<path style=" stroke:none;fill-rule:nonzero;fill:rgb(100%,100%,100%);fill-opacity:1;" d="M 23.113281 31.726562 C 23.113281 31.671875 23.109375 31.613281 23.105469 31.546875 C 23.097656 31.480469 23.085938 31.421875 23.066406 31.363281 C 23.046875 31.304688 23.023438 31.257812 22.988281 31.21875 C 22.957031 31.179688 22.910156 31.160156 22.855469 31.160156 C 22.804688 31.160156 22.757812 31.179688 22.726562 31.21875 C 22.691406 31.257812 22.664062 31.304688 22.644531 31.363281 C 22.625 31.421875 22.613281 31.480469 22.605469 31.546875 C 22.601562 31.613281 22.597656 31.671875 22.597656 31.726562 C 22.597656 31.785156 22.601562 31.84375 22.605469 31.910156 C 22.613281 31.980469 22.625 32.039062 22.644531 32.097656 C 22.664062 32.152344 22.691406 32.203125 22.726562 32.242188 C 22.757812 32.277344 22.804688 32.296875 22.855469 32.296875 C 22.910156 32.296875 22.957031 32.277344 22.988281 32.242188 C 23.023438 32.203125 23.046875 32.152344 23.066406 32.097656 C 23.085938 32.039062 23.097656 31.980469 23.105469 31.910156 C 23.109375 31.84375 23.113281 31.785156 23.113281 31.726562 Z M 23.539062 31.726562 C 23.539062 31.851562 23.523438 31.96875 23.5 32.082031 C 23.476562 32.195312 23.4375 32.292969 23.382812 32.375 C 23.328125 32.460938 23.257812 32.527344 23.171875 32.578125 C 23.085938 32.628906 22.980469 32.652344 22.855469 32.652344 C 22.734375 32.652344 22.628906 32.628906 22.542969 32.578125 C 22.453125 32.527344 22.382812 32.460938 22.328125 32.375 C 22.273438 32.292969 22.234375 32.195312 22.210938 32.082031 C 22.183594 31.96875 22.171875 31.851562 22.171875 31.726562 C 22.171875 31.605469 22.183594 31.484375 22.210938 31.375 C 22.234375 31.265625 22.273438 31.167969 22.328125 31.082031 C 22.382812 31 22.453125 30.933594 22.542969 30.886719 C 22.628906 30.835938 22.734375 30.8125 22.855469 30.8125 C 22.980469 30.8125 23.085938 30.835938 23.171875 30.886719 C 23.257812 30.933594 23.328125 31 23.382812 31.082031 C 23.4375 31.167969 23.476562 31.265625 23.5 31.375 C 23.523438 31.484375 23.539062 31.605469 23.539062 31.726562 "/>
<path style=" stroke:none;fill-rule:nonzero;fill:rgb(100%,100%,100%);fill-opacity:1;" d="M 31.277344 29.125 C 31.277344 29.046875 31.273438 28.960938 31.265625 28.867188 C 31.253906 28.773438 31.238281 28.683594 31.210938 28.601562 C 31.183594 28.519531 31.148438 28.449219 31.097656 28.394531 C 31.050781 28.339844 30.988281 28.3125 30.910156 28.3125 C 30.832031 28.3125 30.765625 28.339844 30.714844 28.394531 C 30.667969 28.449219 30.628906 28.519531 30.601562 28.601562 C 30.574219 28.683594 30.554688 28.773438 30.546875 28.867188 C 30.535156 28.960938 30.53125 29.046875 30.53125 29.125 C 30.53125 29.207031 30.535156 29.296875 30.546875 29.390625 C 30.554688 29.488281 30.574219 29.578125 30.601562 29.660156 C 30.628906 29.742188 30.667969 29.8125 30.714844 29.867188 C 30.765625 29.921875 30.832031 29.949219 30.910156 29.949219 C 30.988281 29.949219 31.050781 29.921875 31.097656 29.867188 C 31.148438 29.8125 31.183594 29.742188 31.210938 29.660156 C 31.238281 29.578125 31.253906 29.488281 31.265625 29.390625 C 31.273438 29.296875 31.277344 29.207031 31.277344 29.125 Z M 31.890625 29.125 C 31.890625 29.304688 31.871094 29.476562 31.835938 29.636719 C 31.800781 29.796875 31.742188 29.941406 31.664062 30.0625 C 31.585938 30.1875 31.484375 30.285156 31.363281 30.355469 C 31.238281 30.429688 31.085938 30.464844 30.910156 30.464844 C 30.730469 30.464844 30.578125 30.429688 30.453125 30.355469 C 30.328125 30.285156 30.226562 30.1875 30.144531 30.0625 C 30.066406 29.941406 30.007812 29.796875 29.972656 29.636719 C 29.9375 29.476562 29.921875 29.304688 29.921875 29.125 C 29.921875 28.949219 29.9375 28.777344 29.972656 28.617188 C 30.007812 28.457031 30.066406 28.316406 30.144531 28.199219 C 30.226562 28.078125 30.328125 27.980469 30.453125 27.910156 C 30.578125 27.839844 30.730469 27.804688 30.910156 27.804688 C 31.085938 27.804688 31.238281 27.839844 31.363281 27.910156 C 31.484375 27.980469 31.585938 28.078125 31.664062 28.199219 C 31.742188 28.316406 31.800781 28.457031 31.835938 28.617188 C 31.871094 28.777344 31.890625 28.949219 31.890625 29.125 "/>
<path style=" stroke:none;fill-rule:nonzero;fill:rgb(100%,100%,100%);fill-opacity:1;" d="M 30.132812 12.082031 C 29.550781 9.238281 27.027344 7.171875 24.128906 7.171875 C 23.6875 7.171875 23.253906 7.222656 22.828125 7.3125 C 22.125 3.167969 18.519531 0 14.1875 0 C 9.898438 0 6.320312 3.109375 5.570312 7.199219 C 2.449219 7.484375 0 10.121094 0 13.320312 C 0 16.710938 2.75 19.46875 6.128906 19.46875 L 15.296875 19.46875 C 15.765625 19.46875 16.144531 19.089844 16.144531 18.621094 C 16.144531 18.148438 15.765625 17.769531 15.296875 17.769531 L 6.128906 17.769531 C 3.683594 17.769531 1.695312 15.773438 1.695312 13.320312 C 1.695312 10.867188 3.683594 8.871094 6.128906 8.871094 C 7.015625 8.871094 7.875 9.132812 8.605469 9.632812 C 8.996094 9.894531 9.523438 9.792969 9.785156 9.402344 C 10.046875 9.015625 9.945312 8.484375 9.554688 8.222656 C 8.863281 7.753906 8.089844 7.4375 7.277344 7.285156 C 7.972656 4.09375 10.804688 1.699219 14.1875 1.699219 C 17.792969 1.699219 20.773438 4.417969 21.203125 7.917969 C 20.976562 8.042969 20.753906 8.179688 20.542969 8.332031 C 20.164062 8.609375 20.078125 9.140625 20.351562 9.519531 C 20.625 9.902344 21.15625 9.984375 21.535156 9.710938 C 22.292969 9.164062 23.191406 8.871094 24.128906 8.871094 C 26.226562 8.871094 28.050781 10.367188 28.472656 12.425781 C 28.554688 12.824219 28.90625 13.101562 29.300781 13.101562 C 29.355469 13.101562 29.414062 13.097656 29.472656 13.085938 C 29.929688 12.992188 30.226562 12.542969 30.132812 12.082031 "/>
</g>
</svg>
