<?xml version="1.0" encoding="UTF-8"?>
<svg xmlns="http://www.w3.org/2000/svg" xmlns:xlink="http://www.w3.org/1999/xlink" width="42px" height="35px" viewBox="0 0 42 35" version="1.1">
<g id="surface1">
<path style=" stroke:none;fill-rule:nonzero;fill:rgb(11.372549%,60.784314%,94.117647%);fill-opacity:1;" d="M 37.589844 8.800781 C 37.613281 9.171875 37.613281 9.542969 37.613281 9.921875 C 37.613281 21.367188 29.011719 34.574219 13.277344 34.574219 L 13.277344 34.566406 C 8.632812 34.574219 4.082031 33.222656 0.167969 30.679688 C 0.84375 30.765625 1.523438 30.804688 2.203125 30.808594 C 6.054688 30.808594 9.796875 29.5 12.828125 27.089844 C 9.167969 27.019531 5.957031 24.601562 4.835938 21.074219 C 6.117188 21.324219 7.441406 21.273438 8.699219 20.925781 C 4.707031 20.109375 1.835938 16.554688 1.835938 12.433594 C 1.835938 12.394531 1.835938 12.359375 1.835938 12.320312 C 3.027344 12.992188 4.359375 13.363281 5.71875 13.40625 C 1.960938 10.863281 0.804688 5.796875 3.070312 1.835938 C 7.414062 7.25 13.820312 10.542969 20.699219 10.890625 C 20.007812 7.878906 20.949219 4.726562 23.171875 2.609375 C 26.617188 -0.667969 32.035156 -0.5 35.273438 2.988281 C 37.1875 2.605469 39.023438 1.890625 40.703125 0.882812 C 40.066406 2.890625 38.730469 4.59375 36.945312 5.675781 C 38.640625 5.472656 40.296875 5.011719 41.855469 4.3125 C 40.707031 6.054688 39.261719 7.574219 37.589844 8.800781 Z M 37.589844 8.800781 "/>
</g>
</svg>
