<?xml version="1.0" encoding="utf-8"?>
<svg version="1.1" id="Layer_1" xmlns="http://www.w3.org/2000/svg" xmlns:xlink="http://www.w3.org/1999/xlink" x="0px" y="0px"
	 width="250.2px" height="85px" viewBox="0 0 250.2 85" style="enable-background:new 0 0 250.2 85;" xml:space="preserve">
<path fill="#FF6633" d="M226.6,57.2c-0.1,3-0.1,6.1-0.1,9.1l0,0c0,0.3,0,0.6,0,0.9l0.1,1l0,0l0.3,5.8l0.2,2.9v0.9c0,0.4,0,0.8-0.1,1.2
	c-0.1,0.4-0.3,0.7-0.6,1c-0.3,0.3-0.7,0.4-1,0.5s-0.7,0.1-1,0.1h-0.5h-0.2c-0.3,0-0.6,0-1,0.1l-0.5,0.1c-0.2,0-0.5,0.1-0.7,0.1h-1.1
	l-4.5,0.1l-9.6,0.1c-0.3,0-0.5-0.1-0.7-0.2c-0.1,0-0.2-0.1-0.3-0.1l-0.1-0.1l-0.1-0.1c-0.1-0.2-0.3-0.4-0.3-0.6
	c-0.1-0.3-0.1-0.6-0.1-0.8l-0.1-0.9v-0.6v-0.5v-0.3c0-0.1,0-0.3,0-0.4c0.1-0.5,0.4-1,0.7-1.4c0.2-0.3,0.4-0.5,0.6-0.8
	c0.4-0.5,0.8-1,1.2-1.4l2.5-2.8l0.9-1l0.1-0.1h-0.1h-0.2h-1h-0.9h-0.5H207c-0.4,0-0.9-0.1-1.3-0.3c-0.1-0.1-0.2-0.1-0.2-0.2
	c-0.1-0.1-0.2-0.1-0.2-0.2c-0.1-0.2-0.2-0.4-0.3-0.6c-0.1-0.4-0.2-0.9-0.2-1.4v-1.1c0-0.5,0-1,0-1.6v-0.7v-0.4c0,0,0-0.1-0.1-0.1
	h-0.1h-0.3l-1.8,0.1c-1,0.1-1.9,0.1-2.9,0.1c-0.2,0-0.3,0-0.5-0.1c-0.3-0.1-0.7-0.3-0.9-0.6l-0.1-0.2l-0.1-0.1v-0.1
	c0-0.1-0.1-0.2-0.1-0.4v-0.2v-0.1v-0.1c0.1-0.2,0.1-0.4,0.2-0.6V60l0.1-0.2l0.3-0.3l0.5-0.6l1-1.2c0.2-0.3,0.4-0.6,0.7-0.8l0.8-0.9
	c0.5-0.6,1.1-1.2,1.7-1.7c0.3-0.3,0.7-0.5,1-0.8c0.2-0.2,0.4-0.4,0.6-0.6l0.2-0.2c0.1-0.1,0.1-0.1,0.1-0.1c0.1-0.1,0.1-0.1,0.2-0.2
	c0-0.1,0.1-0.2,0.1-0.3l0.1-0.4c0-0.3,0.1-0.6,0.1-0.9c0.1-0.6,0.1-1.1,0.2-1.6c0.1-0.9,0.3-1.5,0.5-1.2c0.3,0.5,0.6-0.5,0.8-0.5
	c0.1,0.6,0.2,1.2,0.2,1.9c0,0.6,0,1.1,0,1.7c0,0.3,0,0.6,0,0.8v0.4c0,0.2,0,0.4,0,0.6c-0.1,0.2-0.2,0.5-0.3,0.7s-0.2,0.3-0.2,0.4
	c-0.1,0.1-0.1,0.2-0.2,0.4l0.1-0.1c-1.1,1.6-2.2,3-3.4,4.5l-0.2,0.3l-0.1,0.1l-0.1,0.1l-0.2,0.2l-0.1,0.1c0,0,0,0,0,0.1h0.1h0.3h0.2
	h0.1h0.6h0.6h0.4c0.2,0,0.4,0,0.6,0h0.6c0.2,0,0.3,0.1,0.5,0.1c0.3,0.1,0.6,0.2,0.8,0.5c0.4,0.6,0.6,1.2,0.5,1.9v0.6v1V65v0.6V66
	c0,0.1,0,0.1,0,0.2s0.1,0,0.2,0h2h2c0.7,0,1.4,0,2.1,0.2c0.2,0.1,0.4,0.2,0.6,0.3l0.5,0.3c0.1,0.1,0.2,0.1,0.2,0.2l0.1,0.2l0.1,0.2
	l0.2,0.2l-1.1,1.3l-1.2,0.9l-1.7,1.9l-2.5,2.8c-0.4,0.5-0.8,0.9-1.2,1.4c-0.2,0.2-0.4,0.5-0.6,0.7c-0.1,0.1-0.1,0.1-0.1,0.2
	c0-0.1,0.1,1.3,0,1.1v0.1h0.1h0.1l8.4-0.1l4.3-0.1h1h0.2h0.1v0.3v0.2c0-0.2,0.1,0.7-0.1-0.5h0.1h0.1l0.6-0.1
	c0.4-0.1,0.8-0.1,1.2-0.1h0.4c0,0,0.1,0,0.1-0.1s0-0.1,0-0.2l-0.1-2.1l-0.2-4.5l-0.1-2.3l-0.1-1.1c0-0.4,0-0.8-0.1-1.2
	c0-1.5,0-3,0-4.6l0.1-9l0.1-4.5v-2.3v-1v-0.1c0,0,0,0-0.1,0l0,0l0,0h-1.7h-3.5L205.1,45c-2.2,0-4.4,0.1-6.6,0.2l-1.7,0.1
	c-0.6,0-1.1,0-1.7,0c-1.1,0-2.3,0-3.3,0l0,0h-1.3h-1h-0.4h-0.3h-0.1c0,0-0.1,0-0.1,0.1l0,0V46c0,0.4-0.1,0.7-0.1,1.1
	c0,0.8,0,1.5,0,2.3l0.3,4.8l0.4,9.7v1.2v1.2v2.4v4.8v2.4v1.2c0,0.2,0,0.4,0,0.5v0.3v0.3v0.5v0.6c0.1,0.4,0.1,0.8,0,1.1
	c-0.1,0.3-0.2,0.5-0.3,0.7c-0.2,0.2-0.4,0.4-0.7,0.5c-0.7,0.2-1.4,0.2-2.1,0.1l-0.5-0.1h-0.2c-0.1,0-0.1,0-0.2,0h-0.3l-7.2-0.1h-1.8
	h-0.3c-0.1,0-0.2,0-0.3,0h-0.9l-1.8,0.1l-1.8,0.1c-1.1,0.1-2.4,0.2-3.6,0.3c-1.2,0.1-2.4,0.2-3.6,0.2l-7.2,0.2
	c-4.8,0.1-9.5,0.4-14.3,0.4c-2.4,0-4.8,0-7.2,0h-3.6l-3.6-0.1c-4.8-0.2-9.5-0.1-14.3,0.1c-2.4,0.1-4.7,0.2-7.1,0.4
	c-2.4,0.2-4.9,0.2-7.3,0.2c-1.1,0-2.3,0-3.5,0.1l-1.8,0.1c-0.6,0-1.2,0-1.8,0h-7.1H70.5c-16.3,0-32.7,0.1-49,0.2
	c-6.9,0-8.3-0.2-9.3-0.4c-0.5-0.1-1.2-0.2-3.7-0.2c-6.9-0.1-3.7-0.5-6.3-0.8c-0.4,0-0.8-0.1-1.1-0.3h0.2c-0.2-0.1,0.1-0.2-0.5-0.3
	c-1.7-0.3-0.4-0.5,6-0.4c1.1,0,2.3,0,3.4-0.1C10,80.8,16.3,81,20.3,81c18.9,0.1,37.3-0.2,56.1-0.2h12.2c2,0,4.1,0,6,0l3-0.1
	c0.5,0,1,0,1.6,0h1.5c2,0,4-0.1,6-0.2s4.1-0.3,6.1-0.3c4.1-0.2,8.1-0.2,12.2-0.2l6.1,0.1c2,0,4,0,6,0s4,0,6,0s4-0.1,6-0.2
	c4-0.2,8.1-0.3,12.1-0.4c2,0,4-0.1,6-0.3l1.5-0.1c0.5-0.1,1-0.1,1.5-0.1c1-0.1,2.1-0.2,3.1-0.2l1.4-0.1h0.7h0.2h0.6h2.8l5.5,0.1h1.5
	h0.4h0.1h0.1c0.2,0.1,0.1-0.2,0.1-0.3v-0.3l0,0c0.1,0-0.2,0,0.5,0h0.4c1.1-0.1-1,0.1-0.8,0.1l0,0v-0.2c0-0.2,0-0.3,0-0.4v-0.4v-1.4
	v-2.8v-5.5c0-0.9,0-1.8-0.1-2.7l-0.1-2.8l-0.2-5.5c0-0.5,0-0.9,0-1.4l-0.1-1.4l-0.2-2.8v0v0.2c-0.1-0.9-0.2-2-0.2-3.1
	c0-0.6,0-1.2,0-1.8c0.1-0.7,0.1-1.5,0.2-2.2c0-0.2,0.1-0.4,0.2-0.6c0.1-0.3,0.3-0.5,0.5-0.7s0.5-0.3,0.8-0.4
	c0.3-0.1,0.6-0.1,0.9-0.2c0.2,0,0.3,0,0.5,0h0.4h0.5h0.5h1.1c1.4,0,2.8,0.1,4.2,0.1c0.7,0,1.4,0,2,0l2.1-0.1l4.2-0.1l0,0h1.1l0,0
	l13.1-0.1h-0.1l3.8-0.1h1.9h0.8c0.3,0,0.6,0,0.8,0c0.3,0,0.5,0.1,0.7,0.3c0.2,0.1,0.4,0.3,0.6,0.6c0.2,0.4,0.4,0.9,0.4,1.4
	c0,0.3,0,0.5,0,0.8v0.5V47c0,1.1,0,2.3,0,3.4C226.8,52.6,226.7,54.9,226.6,57.2L226.6,57.2z"/>
<path d="M37.1,34.8h-4.5l-7-24.1l-7,24.1h-4.5l-9-34.5h5.5l6,24.6l6.9-24.6h4.2l6.9,24.6l6-24.6h5.5L37.1,34.8z"/>
<path d="M49.6,23.9c0,4.3,2.2,6.9,6.2,6.9c2.8,0,4.2-0.8,5.9-2.5l3.1,2.9c-2.5,2.5-4.9,3.8-9.2,3.8c-6.1,0-11-3.2-11-12.6
	c0-8,4.1-12.5,10.4-12.5c6.6,0,10.4,4.7,10.4,11.9v2.1H49.6z M60,17.2c-1.3-2.7-4.4-3.8-7.1-2.6c-1.1,0.5-2.1,1.5-2.6,2.6
	s-0.7,2.2-0.6,3.3h11C60.7,19.3,60.5,18.2,60,17.2L60,17.2z"/>
<path d="M85.8,32.9c-1.4,1.4-3.5,2.2-6,2.2c-2.6,0-4.6-0.7-6.5-2.9v2.6h-4.8V0.3h4.9v12.4c1.8-2.1,3.8-2.8,6.4-2.8
	c2.2-0.1,4.3,0.7,6,2.2c2.4,2.4,2.8,6.3,2.8,10.4S88.1,30.5,85.8,32.9z M78.5,14.3c-4.5,0-5.1,3.8-5.1,8.1s0.6,8.2,5.1,8.2
	s5.1-3.8,5.1-8.2S83,14.3,78.5,14.3L78.5,14.3z"/>
<path d="M106.9,35c-5.2,0-8.9-1.2-12.2-4.6l3.4-3.4c2.5,2.5,5.4,3.3,8.9,3.3c4.5,0,7.1-1.9,7.1-5.3c0-1.5-0.4-2.8-1.4-3.6
	c-0.9-0.8-2-1.2-3.8-1.5l-4.1-0.6c-2.8-0.4-5-1.3-6.5-2.8c-1.7-1.5-2.6-3.8-2.6-6.6c0-6,4.4-10.1,11.5-10.1c4.6,0,7.7,1.2,10.7,3.9
	L114.6,7c-2.1-2-4.6-2.7-7.6-2.7c-4.1,0-6.2,2.2-6.2,5.4c-0.1,1.2,0.4,2.4,1.3,3.2c0.9,0.8,1.9,1.3,3.8,1.5L110,15
	c3.1,0.5,4.9,1.2,6.4,2.6c1.8,1.7,2.8,4.1,2.8,7.1C119.3,31.3,114.1,35,106.9,35z"/>
<path d="M126.3,23.9c0,4.3,2.2,6.9,6.2,6.9c2.8,0,4.2-0.8,6-2.5l3.1,2.9c-2.5,2.5-4.9,3.8-9.2,3.8c-6.2,0-11-3.2-11-12.6
	c0-8,4.1-12.5,10.4-12.5c6.6,0,10.4,4.7,10.4,11.9v2.1H126.3z M136.6,17.2c-1.3-2.7-4.4-3.8-7.1-2.6c-1.1,0.5-2.1,1.5-2.6,2.6
	s-0.7,2.2-0.6,3.3h11C137.3,19.3,137.1,18.2,136.6,17.2L136.6,17.2z"/>
<path d="M155.1,35c-5.5,0-10.9-3.4-10.9-12.6s5.4-12.5,10.9-12.5c3.4,0,5.8,1,8.1,3.4l-3.4,3.3c-1.5-1.7-2.8-2.3-4.7-2.3
	c-1.8,0-3.5,0.8-4.6,2.2s-1.5,3.1-1.5,6s0.4,4.6,1.5,6s2.8,2.2,4.6,2.2c1.9,0,3.1-0.6,4.7-2.3l3.4,3.2
	C161.2,33.9,158.2,35.2,155.1,35z"/>
<path d="M180.3,34.8v-2.5c-1.7,1.8-4.1,2.8-6.5,2.8c-2.2,0.1-4.4-0.7-6-2.3c-1.9-1.8-2.5-4.2-2.5-6.9V10.2h4.9v14.9
	c0,3.8,2.2,5.5,4.9,5.5s5.1-1.7,5.1-5.5V10.2h4.9v24.5L180.3,34.8z"/>
<path d="M202.7,16c-1.1-1.1-2-1.6-3.7-1.6c-2.7,0-4.9,2.1-4.9,5.5v14.9h-4.9V10.2h4.8v2.7c1.3-1.7,3.8-3,6.5-3
	c2.2-0.1,4.3,0.7,5.9,2.3L202.7,16z"/>
<path d="M207.7,5.4V0.2h5.2v5.2C212.9,5.4,207.7,5.4,207.7,5.4z M207.8,34.8V10.2h4.9v24.5L207.8,34.8z"/>
<path d="M224.3,34.8c-4.6,0-6.8-3.3-6.8-6.8V14h-2.8v-3.8h2.8v-7h4.9v7h4.7V14h-4.7v13.7c0,1.8,0.9,2.9,2.7,2.9h2v4.2H224.3z"/>
<path d="M239.3,39.6c-0.4,1.1-1,2.2-1.8,3c-1.4,1.4-3.1,1.8-5,1.8h-2V40h1.3c2.1,0,2.8-0.6,3.5-2.6l1.4-3.8l-8.6-23.4h5.2l5.9,17.3
	l5.7-17.3h5.3L239.3,39.6z"/>
<path d="M28.8,75.3l-2.4-6.9H12.8l-2.4,6.9H4.8l12.6-34.5h4.2l12.6,34.5H28.8z M19.8,48.6l-5.4,15.3H25L19.8,48.6z"/>
<path d="M44.9,75.6C39.4,75.6,34,72.2,34,63s5.4-12.5,10.9-12.5c3.4,0,5.8,1,8.1,3.4l-3.4,3.3c-1.5-1.7-2.8-2.3-4.7-2.3
	c-1.8,0-3.5,0.8-4.5,2.2c-1.1,1.4-1.5,3.1-1.5,6c0,2.9,0.4,4.6,1.5,6s2.8,2.2,4.5,2.2c1.9,0,3.1-0.6,4.7-2.3l3.4,3.2
	C50.9,74.4,48,75.7,44.9,75.6z"/>
<path d="M69,75.3V73c-1.8,1.8-3.5,2.5-6.5,2.5s-5.1-0.7-6.6-2.3c-1.3-1.4-2-3.3-1.9-5.3c0-4.1,2.9-7.1,8.5-7.1h6.4v-1.7
	c0-3.1-1.5-4.6-5.4-4.6c-2.6,0-4,0.7-5.4,2.4l-3.2-3c2.3-2.7,4.6-3.6,8.8-3.6c6.8,0,10.1,2.9,10.1,8.4v16.4L69,75.3z M68.9,64.4
	h-5.7c-3,0-4.5,1.3-4.5,3.5s1.4,3.5,4.6,3.5c1.7,0,3.1-0.2,4.5-1.4c0.8-0.7,1.1-1.9,1.1-3.6V64.4z"/>
<path d="M92,75.3v-2.6c-1.8,2.2-3.8,2.9-6.5,2.9c-2.2,0.1-4.4-0.7-6-2.2c-2.4-2.4-2.8-6.3-2.8-10.4s0.4-7.9,2.8-10.4
	c1.6-1.5,3.8-2.3,6-2.2c2.6,0,4.6,0.6,6.4,2.8V40.8h4.9v34.5H92z M86.9,54.9c-4.5,0-5.1,3.8-5.1,8.1s0.6,8.2,5.1,8.2S92,67.4,92,63
	S91.3,54.9,86.9,54.9z"/>
<path d="M104.8,64.4c0,4.3,2.2,6.9,6.2,6.9c2.8,0,4.2-0.8,5.9-2.5l3.1,2.9c-2.5,2.5-4.9,3.8-9.2,3.8c-6.1,0-11-3.2-11-12.6
	c0-8,4.1-12.5,10.4-12.5c6.6,0,10.4,4.7,10.4,11.9v2.1C120.6,64.4,104.8,64.4,104.8,64.4z M115.1,57.7c-1.3-2.7-4.4-3.8-7.1-2.6
	c-1.1,0.5-2.1,1.5-2.6,2.6s-0.7,2.2-0.6,3.3h11C115.8,59.9,115.6,58.7,115.1,57.7L115.1,57.7z"/>
<path d="M153.5,75.3v-15c0-3.8-2.2-5.5-4.9-5.5s-5.1,1.7-5.1,5.2v15.2h-4.9v-15c0-3.8-2.2-5.5-4.9-5.5c-2.8,0-5.1,1.7-5.1,5.5v15h-5
	V50.7h4.8v2.5c1.7-1.8,4.1-2.8,6.5-2.8c3,0,5.4,1.2,7,3.6c1.8-2.4,4.7-3.7,7.7-3.6c2.3-0.1,4.5,0.7,6.2,2.3c1.9,1.8,2.6,4.2,2.6,6.9
	v15.7H153.5z"/>
<path d="M170,80.2c-0.4,1.1-1,2.2-1.8,3c-1.4,1.4-3.1,1.8-5,1.8h-2v-4.4h1.3c2.1,0,2.8-0.6,3.5-2.6l1.4-3.8l-8.6-23.4h5.2l5.9,17.3
	l5.7-17.3h5.3L170,80.2z"/>
</svg>
